<?xml version="1.0" standalone="no"?>
<!DOCTYPE svg PUBLIC "-//W3C//DTD SVG 1.1//EN" "http://www.w3.org/Graphics/SVG/1.1/DTD/svg11.dtd" >
<svg xmlns="http://www.w3.org/2000/svg">
<metadata>Generated by IcoMoon</metadata>
<defs>
<font id="icomoon" horiz-adv-x="1024">
<font-face units-per-em="1024" ascent="960" descent="-64" />
<missing-glyph horiz-adv-x="1024" />
<glyph unicode="&#x20;" horiz-adv-x="512" d="" />
<glyph unicode="&#xe5c6;" glyph-name="close" d="M810 664.667l-238-238 238-238-60-60-238 238-238-238-60 60 238 238-238 238 60 60 238-238 238 238z" />
<glyph unicode="&#xe5ca;" glyph-name="check" d="M384 248.667l452 452 60-60-512-512-238 238 60 60z" />
<glyph unicode="&#xe8e5;" glyph-name="trending" d="M682 682.667h256v-256l-98 98-268-268-170 170-256-256-60 60 316 316 170-170 208 208z" />
<glyph unicode="&#xe900;" glyph-name="swipe" horiz-adv-x="1150" d="M965.344 403.939c1.242 0 2.484 0 3.726 0s3.381 0 5.107 0zM970.795 403.939c-34.918-2.070-57.828-25.602-57.828-61.693v62.797c0.003 0.227 0.005 0.495 0.005 0.764 0 35.368-28.671 64.039-64.039 64.039-0.269 0-0.537-0.002-0.804-0.005h0.041c-39.058-1.449-59.415-33.952-59.415-73.907v61.417c0.004 0.27 0.006 0.589 0.006 0.908 0 38.63-30.967 70.027-69.431 70.721l-0.065 0.001c-43.268 0-68.524-35.47-68.524-78.806v312.534c0.004 0.27 0.006 0.589 0.006 0.908 0 38.63-30.967 70.027-69.431 70.721l-0.065 0.001c-43.268 0-68.524-35.47-68.524-78.875v-415.148l-56.448 69.007c-14.557 21.057-38.571 34.677-65.767 34.677-44.019 0-79.703-35.684-79.703-79.703 0-14.394 3.816-27.897 10.491-39.552l-0.206 0.39 189.011-309.153c24.291-38.92 36.643-79.98 80.187-79.98h375.055c39.594 0.078 71.68 32.115 71.837 71.684v324.35c-0.504 37.576-29.344 68.26-66.097 71.677l-0.289 0.022zM371.398 743.386c2.383-45.125 18.654-86.039 44.576-119.006l-0.342 0.452c4.413-6.074 11.493-9.978 19.485-9.978 13.263 0 24.015 10.752 24.015 24.015 0 6.116-2.286 11.697-6.050 15.937l0.022-0.025c-21.099 26.41-33.857 60.288-33.857 97.147 0 1.292 0.016 2.58 0.047 3.864l-0.004-0.19c0.955 86.627 71.402 156.483 158.165 156.483 87.357 0 158.174-70.817 158.174-158.174 0-0.594-0.003-1.188-0.010-1.781l0.001 0.090c0-0.133 0.001-0.29 0.001-0.448 0-36.779-12.687-70.595-33.922-97.311l0.246 0.321c-3.503-4.233-5.629-9.717-5.629-15.698 0-5.341 1.695-10.286 4.576-14.326l-0.051 0.075c4.477-6.002 11.552-9.851 19.526-9.868h0.003c7.717 0.269 14.504 4.028 18.864 9.739l0.044 0.060c25.58 32.516 41.85 73.43 44.212 118.032l0.022 0.522h177.763v48.305h-180.937c-18.539 96.517-102.31 168.448-202.882 168.448s-184.343-71.931-202.674-167.153l-0.208-1.295h-186.32v-48.305zM188.252 770.92v-67.558c0-0.011 0-0.025 0-0.038 0-19.704-15.973-35.677-35.677-35.677-6.582 0-12.748 1.782-18.041 4.891l0.168-0.091-58.518 33.814-58.311 33.814c-10.893 6.246-18.112 17.807-18.112 31.053s7.219 24.807 17.938 30.961l0.174 0.092 58.449 33.607 58.518 33.814c5.125 3.018 11.291 4.8 17.873 4.8 19.704 0 35.677-15.973 35.677-35.677 0-0.062 0-0.124 0-0.186v0.010zM961.134 770.92v67.627c0 0.011 0 0.025 0 0.038 0 19.704 15.973 35.677 35.677 35.677 6.582 0 12.748-1.782 18.041-4.891l-0.168 0.091 117.036-67.558c10.893-6.246 18.112-17.807 18.112-31.053s-7.219-24.807-17.938-30.961l-0.174-0.092-116.967-67.558c-5.125-3.017-11.291-4.8-17.873-4.8-19.704 0-35.677 15.973-35.677 35.677 0 0.013 0 0.027 0 0.040v-0.002z" />
<glyph unicode="&#xe901;" glyph-name="flipboard" d="M0 960h328.533v-1024h-328.533v1024zM362.667 597.333h332.8v-332.8h-332.8v332.8zM362.667 960h661.333v-328.533h-661.333v328.533z" />
<glyph unicode="&#xe902;" glyph-name="google-news" d="M1324.4 301.352v600.463c0 25.372-20.974 46.346-46.346 46.346h-1203.293c-25.372 0-46.346-20.974-46.346-46.346v-903.231c0-25.372 20.974-46.346 46.346-46.346h1203.293c25.372 0 46.346 20.974 46.346 46.346v302.768zM728.336 678.205c0 6.427 5.074 11.502 11.502 11.502h362.984c6.427 0 11.502-5.074 11.502-11.502v-78.483c0-6.427-5.074-11.502-11.502-11.502h-362.984c-6.427 0-11.502 5.074-11.502 11.502v78.483zM540.247 273.274c-135.654-110.959-281.795 11.84-281.795 11.84-143.773 122.799-47.36 302.768-47.36 302.768 169.821 203.65 347.084 36.535 347.084 36.535l-65.29-62.583c-59.877 54.803-135.315 26.048-135.315 26.048-117.386-59.877-78.483-177.602-78.483-177.602 57.509-117.386 151.553-86.264 151.553-86.264 104.531 13.193 91.338 86.264 91.338 86.264h-115.018v86.264h216.843c12.855-190.457-83.557-223.271-83.557-223.271zM1114.661 234.032c0-6.427-5.074-11.502-11.502-11.502h-363.322c-6.427 0-11.502 5.074-11.502 11.502v78.483c0 6.427 5.074 11.502 11.502 11.502h362.984c6.427 0 11.502-5.074 11.502-11.502v-78.483zM1171.156 422.121c0-6.427-5.074-11.502-11.502-11.502h-419.816c-6.427 0-11.502 5.074-11.502 11.502v78.483c0 6.427 5.074 11.502 11.502 11.502h419.816c6.427 0 11.502-5.074 11.502-11.502v-78.483z" />
<glyph unicode="&#xe903;" glyph-name="apple-news" horiz-adv-x="1030" d="M98.587 309.608c-36.707 36.707-99.469 10.087-98.587-41.819l4.591-270.43c0.52-31.121 25.625-56.225 56.768-56.768l270.43-4.591c51.906-0.882 78.526 61.857 41.819 98.564l-275.021 275.043zM931.407 586.392c36.707-36.707 99.446-10.11 98.564 41.819l-4.591 270.43c-0.52 31.121-25.625 56.225-56.768 56.768l-270.407 4.591c-51.906 0.882-78.526-61.857-41.819-98.564l275.021-275.043zM998.42 257.046l-691.442 691.442-1.131-1.131c-9.793 7.984-22.504 12.869-37.25 12.62l-208.301-3.528c-31.121-0.52-56.225-25.625-56.746-56.746l-3.551-208.301c-0.407-24.404 13.231-43.198 31.596-52.471l696.214-696.214 1.922 1.922c8.866-5.564 19.564-8.843 31.641-8.64l208.301 3.528c31.121 0.52 56.225 25.625 56.768 56.768l3.528 208.301c0.43 24.358-13.186 43.153-31.55 52.448z" />
<glyph unicode="&#xe904;" glyph-name="tldr-1" horiz-adv-x="2906" d="M1476.88 960l-425.663-597.445h255.219l-78.529-428.786 425.663 599.676h-255.219zM0 777.956h500.176v-165.982h-168.659v-469.389h-166.428v469.389h-165.089zM564.427 777.063h166.874v-467.158h228.448v-167.32h-395.322zM1728.53 777.063h234.695c175.206 0 317.239-142.033 317.239-317.239s-142.033-317.239-317.239-317.239v0h-234.695zM1894.065 306.782h69.159c2.446-0.142 5.308-0.223 8.188-0.223 83.044 0 150.365 67.321 150.365 150.365s-67.321 150.365-150.365 150.365c-2.88 0-5.742-0.081-8.582-0.241l0.394 0.018h-69.159zM2713.265 142.585l-98.161 168.213h-103.069v-168.213h-166.874v634.478h267.712c128.777-0.253 233.102-104.579 233.356-233.331v-0.025c0-0.029 0-0.063 0-0.097 0-67.572-28.998-128.372-75.228-170.633l-0.177-0.16 133.856-230.233zM2512.035 454.916h103.069c50.147 0 90.799 40.652 90.799 90.799s-40.652 90.799-90.799 90.799v0h-103.069z" />
<glyph unicode="&#xe905;" glyph-name="tldr-2" horiz-adv-x="601" d="M422.957 960l-422.957-596.591h253.774l-75.687-427.409 422.957 596.591h-253.774l75.687 427.409z" />
<glyph unicode="&#xe906;" glyph-name="swipe-2" horiz-adv-x="893" d="M826.437 403.978c-34.941-2.072-57.936-25.55-57.936-61.665v53.724c0 40.811-21.269 73.957-62.148 73.957s-62.148-33.146-62.148-73.957v54.207c0 43.573-25.481 78.929-69.054 78.929s-69.054-35.356-69.054-78.929v305.771c0 43.573-25.481 78.86-69.054 78.86s-69.054-35.287-69.054-78.86v-415.497l-56.486 69.054c-14.567 21.071-38.597 34.701-65.811 34.701-44.049 0-79.757-35.709-79.757-79.757 0-14.404 3.818-27.916 10.498-39.579l-0.206 0.39 189.139-309.292c24.307-38.946 36.668-80.033 80.31-80.033h375.239c37.842 0 71.885 41.985 71.885 79.757v316.681c-0.544 37.518-29.365 68.136-66.075 71.519l-0.286 0.021zM820.913 403.978c1.243 0 2.486 0 3.729 0s3.384 0 5.11 0zM270.829 624.951c4.517-5.619 11.391-9.184 19.096-9.184 0.035 0 0.071 0 0.106 0h-0.005c0.066-0.001 0.145-0.001 0.223-0.001 13.234 0 23.962 10.728 23.962 23.962 0 5.692-1.985 10.921-5.3 15.032l0.036-0.046c-21.506 26.551-34.527 60.742-34.527 97.974 0 0.029 0 0.058 0 0.087v-0.005c0 87.411 70.861 158.271 158.271 158.271s158.271-70.861 158.271-158.271v0c0-0.010 0-0.022 0-0.034 0-37.248-13.020-71.454-34.758-98.317l0.231 0.294c-3.553-4.181-5.714-9.641-5.714-15.606 0-13.348 10.821-24.169 24.169-24.169 7.91 0 14.933 3.8 19.342 9.674l0.045 0.062c28.088 34.689 45.092 79.354 45.092 127.991 0 0.061 0 0.122 0 0.182v-0.009c0 0.145 0.001 0.316 0.001 0.488 0 114.145-92.533 206.678-206.678 206.678-100.322 0-183.949-71.478-202.733-166.285l-0.217-1.314h-117.392v13.811c0.002 0.126 0.003 0.276 0.003 0.425 0 15.484-12.552 28.036-28.036 28.036-5.967 0-11.5-1.864-16.045-5.043l0.091 0.060-56.279-39.637c-7.375-5.212-12.133-13.703-12.133-23.306s4.757-18.094 12.044-23.246l0.089-0.060 56.21-39.637c4.498-3.207 10.106-5.127 16.162-5.127 15.484 0 28.036 12.552 28.036 28.036 0 0.152-0.001 0.303-0.004 0.454v-0.023 16.78h114.077c2.384-45.178 18.666-86.143 44.607-119.158l-0.344 0.454z" />
<glyph unicode="&#xe907;" glyph-name="Asset-1" horiz-adv-x="2121" d="M1543.8 959.492c-1.592 0.292-3.423 0.459-5.294 0.459-10.534 0-19.83-5.295-25.374-13.369l-0.068-0.104c-2.986-4.674-4.759-10.373-4.759-16.486 0-6.286 1.875-12.134 5.096-17.016l-0.072 0.116 144.837-214.328-471.83-285.697-339.035 362.523c-5.494 5.83-13.267 9.46-21.887 9.46-8.241 0-15.707-3.317-21.136-8.689l0.003 0.003-795.443-788.969c-5.488-5.608-8.875-13.293-8.875-21.768 0-7.107 2.381-13.657 6.389-18.897l-0.055 0.075c5.738-6.625 14.162-10.792 23.559-10.792 6.189 0 11.955 1.807 16.801 4.922l-0.123-0.074 686.29 453.888 391.093-423.684c5.652-5.79 13.534-9.381 22.255-9.381 6.486 0 12.509 1.987 17.492 5.384l-0.107-0.069 668.658 475.498 127.912-187.813c5.502-7.862 14.515-12.939 24.715-12.939 14.518 0 26.632 10.287 29.453 23.97l0.033 0.194 106.302 551.728c2.961 15.467-8.308 32.127-23.709 35.176z" />
<glyph unicode="&#xe908;" glyph-name="download" d="M214 170.667h596v-86h-596v86zM810 554.667l-298-298-298 298h170v256h256v-256h170z" />
<glyph unicode="&#xe909;" glyph-name="premium-pick" horiz-adv-x="999" d="M347.66 302.642l-0.999 1.998h-1.998c-5.994-0.999-11.988-1.998-17.982-1.998-14.985 0-29.971 3.996-42.958 9.99l-97.904-244.761c-2.997-6.993 3.996-14.985 11.988-11.988l91.91 28.972c2.997 0.999 5.994 0 7.992-2.997l48.952-85.916c3.996-7.992 14.985-6.993 17.982 0.999l102.9 258.747c-8.991-2.997-19.98-4.995-29.971-4.995-37.963 0-72.929 19.98-89.912 51.949zM715.301 311.633c-13.986-5.994-27.973-9.99-43.957-9.99-5.994 0-11.988 0.999-17.982 1.998h-1.998l-0.999-1.998c-17.982-32.968-51.949-52.948-89.912-52.948-9.99 0-19.98 1.998-29.971 4.995l103.899-259.746c2.997-6.993 13.986-7.992 17.982-1.998l48.952 85.916c1.998 2.997 4.995 3.996 7.992 2.997l91.91-28.972c7.992-2.997 14.985 4.995 11.988 12.987l-97.904 246.759zM804.215 652.3l-12.987 10.989c-12.987 11.988-17.982 30.97-10.989 46.954l5.994 14.985c9.99 22.978-2.997 48.952-26.974 55.945l-15.984 3.996c-16.983 4.995-28.972 19.98-29.971 37.963v16.983c-0.999 24.976-23.977 42.958-47.953 38.962l-15.984-2.997c-17.982-2.997-34.966 4.995-42.958 20.98l-7.992 13.986c-11.988 21.979-39.961 27.973-59.941 13.986l-12.987-8.991c-13.986-9.99-33.967-9.99-47.953 0l-12.987 9.99c-19.98 14.985-48.952 7.992-60.94-13.986l-7.992-13.986c-8.991-15.984-25.975-23.977-43.957-20.98l-15.984 2.997c-24.976 3.996-46.954-13.986-48.952-38.962l-0.999-15.984c-0.999-17.982-12.987-32.968-29.971-37.963l-15.984-4.995c-23.977-6.993-36.964-32.968-26.974-55.945l5.994-14.985c6.993-15.984 1.998-34.966-10.989-46.954l-11.988-10.989c-18.981-15.984-18.981-45.955 0-61.94l11.988-10.989c12.987-11.988 17.982-30.97 10.989-46.954l-5.994-14.985c-9.99-22.978 2.997-48.952 26.974-55.945l15.984-3.996c16.983-4.995 28.972-19.98 29.971-37.963l0.999-15.984c0.999-24.976 23.977-42.958 47.953-38.962l15.984 2.997c17.982 2.997 34.966-4.995 42.958-20.98l7.992-13.986c11.988-21.979 39.961-27.973 59.941-13.986l12.987 8.991c13.986 9.99 33.967 9.99 47.953 0l12.987-9.99c19.98-14.985 48.952-7.992 60.94 13.986l7.992 13.986c8.991 15.984 25.975 23.977 43.957 20.98l15.984-2.997c24.976-3.996 46.954 13.986 48.952 38.962l0.999 15.984c0.999 17.982 12.987 32.968 29.971 37.963l15.984 3.996c23.977 6.993 36.964 32.968 26.974 55.945l-5.994 14.985c-6.993 15.984-1.998 34.966 10.989 46.954l11.988 10.989c18.981 15.984 18.981 45.955 0 61.94zM532.48 535.415l-72.929-71.93-72.929 73.928-69.932 69.932 72.929 72.929 69.932-69.932 167.836 165.838 72.929-72.929-167.836-167.836z" />
<glyph unicode="&#xe90a;" glyph-name="editor-choice" horiz-adv-x="999" d="M347.66 302.642l-0.999 1.998h-1.998c-5.994-0.999-11.988-1.998-17.982-1.998-14.985 0-29.971 3.996-42.958 9.99l-97.904-244.761c-2.997-6.993 3.996-14.985 11.988-11.988l91.91 28.972c2.997 0.999 5.994 0 7.992-2.997l48.952-85.916c3.996-7.992 14.985-6.993 17.982 0.999l102.9 258.747c-8.991-2.997-19.98-4.995-29.971-4.995-37.963 0-72.929 19.98-89.912 51.949zM715.301 311.633c-13.986-5.994-27.973-9.99-43.957-9.99-5.994 0-11.988 0.999-17.982 1.998h-1.998l-0.999-1.998c-17.982-32.968-51.949-52.948-89.912-52.948-9.99 0-19.98 1.998-29.971 4.995l103.899-259.746c2.997-6.993 13.986-7.992 17.982-1.998l48.952 85.916c1.998 2.997 4.995 3.996 7.992 2.997l91.91-28.972c7.992-2.997 14.985 4.995 11.988 12.987l-97.904 246.759zM804.215 652.3l-12.987 10.989c-12.987 11.988-17.982 30.97-10.989 46.954l5.994 14.985c9.99 22.978-2.997 48.952-26.974 55.945l-15.984 3.996c-16.983 4.995-28.972 19.98-29.971 37.963v16.983c-0.999 24.976-23.977 42.958-47.953 38.962l-15.984-2.997c-17.982-2.997-34.966 4.995-42.958 20.98l-7.992 13.986c-11.988 21.979-39.961 27.973-59.941 13.986l-12.987-8.991c-13.986-9.99-33.967-9.99-47.953 0l-12.987 9.99c-19.98 14.985-48.952 7.992-60.94-13.986l-7.992-13.986c-8.991-15.984-25.975-23.977-43.957-20.98l-15.984 2.997c-24.976 3.996-46.954-13.986-48.952-38.962l-0.999-15.984c-0.999-17.982-12.987-32.968-29.971-37.963l-15.984-4.995c-23.977-6.993-36.964-32.968-26.974-55.945l5.994-14.985c6.993-15.984 1.998-34.966-10.989-46.954l-11.988-10.989c-18.981-15.984-18.981-45.955 0-61.94l11.988-10.989c12.987-11.988 17.982-30.97 10.989-46.954l-5.994-14.985c-9.99-22.978 2.997-48.952 26.974-55.945l15.984-3.996c16.983-4.995 28.972-19.98 29.971-37.963l0.999-15.984c0.999-24.976 23.977-42.958 47.953-38.962l15.984 2.997c17.982 2.997 34.966-4.995 42.958-20.98l7.992-13.986c11.988-21.979 39.961-27.973 59.941-13.986l12.987 8.991c13.986 9.99 33.967 9.99 47.953 0l12.987-9.99c19.98-14.985 48.952-7.992 60.94 13.986l7.992 13.986c8.991 15.984 25.975 23.977 43.957 20.98l15.984-2.997c24.976-3.996 46.954 13.986 48.952 38.962l0.999 15.984c0.999 17.982 12.987 32.968 29.971 37.963l15.984 3.996c23.977 6.993 36.964 32.968 26.974 55.945l-5.994 14.985c-6.993 15.984-1.998 34.966 10.989 46.954l11.988 10.989c18.981 15.984 18.981 45.955 0 61.94zM671.344 657.296l-69.932-68.933c-2.997-2.997-4.995-7.992-3.996-11.988l16.983-96.905c1.998-10.989-9.99-18.981-19.98-13.986l-86.915 45.955c-3.996 1.998-8.991 1.998-12.987 0l-86.915-45.955c-9.99-4.995-20.98 2.997-19.98 13.986l16.983 96.905c0.999 3.996-0.999 8.991-3.996 11.988l-69.932 68.933c-7.992 7.992-3.996 20.98 6.993 22.978l96.905 13.986c3.996 0.999 7.992 2.997 9.99 6.993l43.957 87.914c4.995 9.99 18.981 9.99 23.977 0l43.957-87.914c1.998-3.996 5.994-6.993 9.99-6.993l96.905-13.986c11.988-1.998 15.984-14.985 7.992-22.978z" />
<glyph unicode="&#xe90b;" glyph-name="best-value" horiz-adv-x="990" d="M433.764 256.867c9.903 0 20.797 1.981 29.71 4.952l-102.004-256.495c-2.971-7.923-13.865-8.913-17.826-0.99l-48.526 85.168c-1.981 2.971-4.952 3.961-7.923 2.971l-91.11-28.72c-7.923-2.971-15.845 4.952-11.884 12.874l97.052 242.631c12.874-5.942 27.729-9.903 42.584-9.903 5.942 0 11.884 0.99 17.826 1.981h1.981l0.99-1.981c16.836-31.691 51.497-52.487 89.13-52.487zM708.085 318.267c-12.874-5.942-27.729-9.903-43.574-9.903-5.942 0-11.884 0.99-17.826 1.981h-1.981l-0.99-1.981c-17.826-32.681-52.487-52.487-89.13-52.487-9.903 0-19.807 1.981-29.71 4.952l102.994-257.485c2.971-7.923 13.865-8.913 17.826-0.99l48.526 85.168c1.981 2.971 4.952 3.961 7.923 2.971l91.11-28.72c7.923-2.971 15.845 4.952 11.884 12.874l-97.052 243.621zM796.224 654.979c18.816-16.836 18.816-45.555 0-61.4l-11.884-10.894c-12.874-11.884-17.826-30.7-10.894-46.545l5.942-14.855c9.903-22.778-2.971-48.526-26.739-55.458l-15.845-3.961c-16.836-4.952-28.72-19.807-29.71-37.632l-0.99-15.845c-0.99-21.787-19.807-38.623-40.603-38.623-1.981 0-4.952 0-6.932 0.99l-15.845 2.971c-1.981 0-4.952 0.99-6.932 0.99-14.855 0-28.72-7.923-35.652-20.797l-7.923-13.865c-7.923-13.865-21.787-20.797-35.652-20.797-7.923 0-16.836 2.971-23.768 7.923l-12.874 9.903c-6.932 4.952-15.845 7.923-23.768 7.923s-16.836-2.971-23.768-7.923l-12.874-8.913c-6.932-4.952-15.845-7.923-23.768-7.923-14.855 0-28.72 7.923-35.652 21.787l-7.923 13.865c-6.932 13.865-20.797 21.787-35.652 21.787-1.981 0-4.952 0-6.932-0.99l-15.845-2.971c-1.981 0-4.952-0.99-6.932-0.99-21.787 0-39.613 16.836-40.603 38.623l-3.961 13.865c-0.99 17.826-12.874 32.681-29.71 37.632l-15.845 3.961c-23.768 6.932-35.652 32.681-26.739 55.458l5.942 14.855c6.932 15.845 2.971 34.662-10.894 46.545l-11.884 10.894c-18.816 16.836-18.816 45.555 0 61.4l11.884 10.894c12.874 11.884 17.826 30.7 10.894 46.545l-5.942 14.855c-9.903 22.778 2.971 48.526 26.739 55.458l15.845 3.961c16.836 4.952 28.72 19.807 29.71 37.632l0.99 15.845c0.99 21.787 19.807 38.623 40.603 38.623 1.981 0 4.952 0 6.932-0.99l15.845-2.971c1.981 0 4.952-0.99 6.932-0.99 14.855 0 28.72 7.923 35.652 20.797l7.923 13.865c7.923 13.865 21.787 20.797 35.652 20.797 7.923 0 16.836-2.971 23.768-7.923l12.874-9.903c6.932-4.952 15.845-7.923 23.768-7.923s16.836 2.971 23.768 7.923l12.874 8.913c6.932 4.952 15.845 7.923 23.768 7.923 14.855 0 28.72-7.923 35.652-21.787l7.923-13.865c6.932-13.865 20.797-21.787 35.652-21.787 1.981 0 4.952 0 6.932 0.99l15.845 2.971c1.981 0 4.952 0.99 6.932 0.99 21.787 0 39.613-16.836 40.603-38.623l0.99-15.845c0.99-17.826 12.874-32.681 29.71-37.632l15.845-3.961c23.768-6.932 35.652-32.681 26.739-55.458l-2.971-12.874c-6.932-15.845-2.971-34.662 10.894-46.545l11.884-10.894zM470.406 694.592c0 9.903 1.981 17.826 6.932 23.768s11.884 8.913 21.787 8.913 17.826-3.961 23.768-10.894c4.952-5.942 7.923-14.855 8.913-25.749 0-4.952 4.952-8.913 9.903-8.913l50.507 0.99c5.942 0 9.903 4.952 9.903 9.903-0.99 21.787-7.923 40.603-20.797 55.458-12.874 15.845-30.7 25.749-52.487 29.71v37.632c0 4.952-3.961 8.913-8.913 8.913h-30.7c-4.952 0-8.913-3.961-8.913-8.913v-36.642c-23.768-2.971-42.584-11.884-56.449-25.749-15.845-14.855-23.768-34.662-23.768-58.429 0-25.749 7.923-45.555 22.778-59.42s38.623-26.739 72.294-39.613c13.865-5.942 22.778-11.884 28.72-17.826 4.952-5.942 7.923-14.855 7.923-25.749 0-9.903-2.971-16.836-7.923-22.778s-12.874-8.913-22.778-8.913c-11.884 0-21.787 3.961-29.71 11.884-5.942 5.942-9.903 15.845-10.894 28.72 0 4.952-4.952 8.913-9.903 8.913l-50.507-0.99c-5.942 0-9.903-4.952-9.903-9.903 0.99-26.739 9.903-47.536 25.749-61.4 16.836-15.845 38.623-24.758 64.371-27.729v-34.662c0-4.952 3.961-8.913 8.913-8.913h30.7c4.952 0 8.913 3.961 8.913 8.913v35.652c20.797 3.961 37.632 11.884 50.507 24.758 14.855 14.855 22.778 34.662 22.778 58.429 0 25.749-7.923 45.555-22.778 59.42s-39.613 27.729-71.304 41.594c-13.865 5.942-23.768 11.884-28.72 17.826-6.932 3.961-8.913 11.884-8.913 21.787z" />
<glyph unicode="&#xe90c;" glyph-name="instagram1" d="M512 960c-139.093 0-156.459-0.64-211.072-3.072-54.528-2.56-91.648-11.136-124.288-23.808-33.664-13.056-62.251-30.592-90.709-59.051s-46.037-57.003-59.051-90.709c-12.672-32.64-21.291-69.76-23.808-124.288-2.56-54.613-3.072-71.979-3.072-211.072s0.64-156.459 3.072-211.072c2.56-54.485 11.136-91.648 23.808-124.288 13.056-33.621 30.592-62.251 59.051-90.709 28.459-28.416 57.003-46.037 90.709-59.051 32.683-12.629 69.803-21.291 124.288-23.808 54.613-2.56 71.979-3.072 211.072-3.072s156.459 0.64 211.072 3.072c54.485 2.56 91.648 11.179 124.288 23.808 33.621 13.056 62.251 30.635 90.709 59.051 28.416 28.459 46.037 56.96 59.051 90.709 12.629 32.64 21.291 69.803 23.808 124.288 2.56 54.613 3.072 71.979 3.072 211.072s-0.64 156.459-3.072 211.072c-2.56 54.485-11.179 91.691-23.808 124.288-13.056 33.664-30.635 62.251-59.051 90.709-28.459 28.459-56.96 46.037-90.709 59.051-32.64 12.672-69.803 21.291-124.288 23.808-54.613 2.56-71.979 3.072-211.072 3.072zM512 867.84c136.661 0 152.96-0.683 206.933-3.029 49.92-2.347 77.013-10.624 95.019-17.707 23.979-9.259 40.96-20.352 58.965-38.229 17.877-17.92 28.971-34.944 38.229-58.923 6.997-18.005 15.36-45.099 17.621-95.019 2.432-54.016 2.987-70.229 2.987-206.933s-0.64-152.96-3.157-206.933c-2.603-49.92-10.923-77.013-17.963-95.019-9.557-23.979-20.437-40.96-38.357-58.965-17.877-17.877-35.157-28.971-58.88-38.229-17.92-6.997-45.44-15.36-95.36-17.621-54.357-2.432-70.357-2.987-207.317-2.987-137.003 0-153.003 0.64-207.317 3.157-49.963 2.603-77.483 10.923-95.403 17.963-24.277 9.557-40.96 20.437-58.837 38.357-17.963 17.877-29.44 35.157-38.4 58.88-7.040 17.92-15.317 45.44-17.92 95.36-1.92 53.76-2.603 70.357-2.603 206.677 0 136.363 0.683 153.003 2.603 207.403 2.603 49.92 10.88 77.397 17.92 95.317 8.96 24.32 20.437 40.96 38.4 58.923 17.877 17.877 34.56 29.397 58.837 38.315 17.92 7.083 44.843 15.403 94.763 17.963 54.4 1.92 70.4 2.56 207.317 2.56l1.92-1.28zM512 710.912c-145.28 0-262.912-117.76-262.912-262.912 0-145.28 117.76-262.912 262.912-262.912 145.28 0 262.912 117.76 262.912 262.912 0 145.28-117.76 262.912-262.912 262.912zM512 277.333c-94.293 0-170.667 76.373-170.667 170.667s76.373 170.667 170.667 170.667 170.667-76.373 170.667-170.667-76.373-170.667-170.667-170.667zM846.763 721.28c0-33.92-27.563-61.44-61.44-61.44-33.92 0-61.44 27.563-61.44 61.44s27.563 61.397 61.44 61.397c33.835 0.043 61.44-27.52 61.44-61.397z" />
<glyph unicode="&#xe90d;" glyph-name="trending-3" horiz-adv-x="1671" d="M0 59.303l597.975 597.998 323.697-323.697 400.545 400.522h-98.16v204.542h447.315v-447.315h-204.542v98.16l-545.158-545.158-323.697 323.72-453.362-453.407-144.613 144.636z" />
<glyph unicode="&#xe90e;" glyph-name="feedly" d="M315.563 24.235l-289.109 291.157c-35.2 35.157-35.2 111.317 0 144.64l414.251 416.085c33.323 33.28 107.563 33.28 140.672 0l416.256-416.128c35.243-35.2 35.243-111.403 0-144.683l-289.237-291.157c-17.536-17.493-44.928-29.269-72.32-29.269h-252.075c-25.429 0.043-50.773 11.776-68.437 29.355zM579.413 137.557c5.845 5.888 5.845 17.621 0 23.467l-56.661 56.661c-5.888 6.4-17.579 6.4-23.424 0l-56.704-56.277c-5.888-5.717-5.888-17.28 0-23.040l44.971-42.88h46.891l45.44 43.52-0.512-1.451zM579.413 377.899c3.925 3.84 3.925 13.653 0 17.579l-60.587 60.117c-3.84 3.883-13.653 3.883-17.579 0l-175.829-175.957c-5.931-6.4-5.931-19.84 0-25.643l40.917-40.96h47.019l166.101 164.48v0.384zM579.413 616.277c3.925 3.883 5.845 15.616 0 19.541l-58.667 58.624c-3.84 4.437-15.573 4.437-21.419 0l-294.997-295.040c-4.011-3.84-5.973-15.317-2.091-19.157l46.933-44.8h44.928l285.312 280.832z" />
<glyph unicode="&#xe90f;" glyph-name="pushbullet" d="M308.019 201.585c-66.929 0-66.929 0-66.929 66.929v367.493c0 66.929 0 66.929 66.929 66.929h13.353c66.929 0 66.929 0 66.929-66.929v-367.452c0-66.929 0-66.929-66.929-66.929h-13.353zM484.147 201.585c-22.815 0-34.038 11.223-34.038 34.038v433.275c0 22.774 11.223 34.038 34.038 34.038h150.159c128.696 0 210.493-129.106 210.493-252.109s-82.493-249.242-210.493-249.242h-150.159z" />
<glyph unicode="&#xe910;" glyph-name="tiktok-share-icon-black" d="M804.7 513.249c-5.612-0.532-11.223-0.819-16.835-0.86-61.604 0-119.071 31.048-152.863 82.616v-281.272c0-114.811-93.061-207.913-207.913-207.913s-207.913 93.061-207.913 207.913 93.061 207.913 207.913 207.913v0c4.342 0 8.602-0.41 12.861-0.655v-102.482c-4.26 0.492-8.479 1.311-12.861 1.311-58.614 0-106.086-47.514-106.086-106.086s47.514-106.086 106.086-106.086c58.614 0 110.387 46.162 110.387 104.776l1.024 477.716h98.017c9.257-87.9 80.118-156.549 168.264-162.98v-113.869z" />
<glyph unicode="&#xe911;" glyph-name="googlenews" d="M814.349 718.106v122.667c-0.068 14.325-11.696 25.912-26.031 25.912-0.020 0-0.039 0-0.059 0h-552.59c-0.070 0.001-0.152 0.001-0.235 0.001-14.336 0-25.966-11.589-26.031-25.911v-120.923l357.995 130.219c2.241 0.719 4.819 1.133 7.493 1.133 11.285 0 20.846-7.378 24.124-17.573l0.050-0.179 23.245-63.919zM1006.165 646.699l-375.603 101.047 32.077-88.149h238.238c14.426-0.034 26.112-11.72 26.146-26.143v-375.256l95.872 356.949c0.702 2.212 1.106 4.757 1.106 7.396 0 11.304-7.421 20.875-17.657 24.107l-0.179 0.049zM96.853 633.451c0.068 14.416 11.738 26.083 26.149 26.146h518.602l-54.157 148.928c-3.427 10.241-12.932 17.49-24.13 17.49-2.711 0-5.323-0.425-7.772-1.212l0.18 0.050-540.049-196.578c-9.279-3.9-15.676-12.914-15.676-23.422 0-3.479 0.701-6.794 1.97-9.812l-0.062 0.167 94.946-260.779zM96.853 633.451c0.068 14.416 11.738 26.083 26.149 26.146h518.602l-54.157 148.928c-3.427 10.241-12.932 17.49-24.13 17.49-2.711 0-5.323-0.425-7.772-1.212l0.18 0.050-540.049-196.578c-9.279-3.9-15.676-12.914-15.676-23.422 0-3.479 0.701-6.794 1.97-9.812l-0.062 0.167 94.946-260.779zM907.383 55.467c-0.031-14.43-11.721-26.119-26.147-26.15h-738.537c-14.43 0.031-26.119 11.721-26.15 26.147v558.284c0.031 14.43 11.721 26.119 26.147 26.15h738.533c14.43-0.031 26.119-11.721 26.15-26.147v-0.003zM778.039 201.37v51.021c-0.002 1.893-1.537 3.426-3.43 3.426 0 0 0 0 0 0h-229.231v-58.108h229.231c1.903 0.029 3.435 1.578 3.435 3.485 0 0.062-0.002 0.123-0.005 0.184v-0.009zM812.898 311.774v51.251c0 0.016 0 0.036 0 0.055 0 1.893-1.534 3.428-3.426 3.43h-264.094v-58.108h264.094c0.018 0 0.040-0.001 0.062-0.001 1.862 0 3.371 1.509 3.371 3.371 0 0.041-0.001 0.081-0.002 0.122v-0.006zM778.039 422.174v51.486c-0.002 1.893-1.537 3.426-3.43 3.426 0 0 0 0 0 0h-229.231v-58.108h229.231c1.862 0.030 3.367 1.514 3.43 3.365v0.006zM347.703 360.755v-52.292h75.537c-6.217-31.957-34.342-55.147-75.537-55.147-45.255 1.661-81.311 38.748-81.311 84.256s36.056 82.595 81.16 84.252l0.151 0.004c0.377 0.007 0.821 0.011 1.266 0.011 20.258 0 38.654-7.975 52.219-20.956l-0.028 0.026 39.859 39.804c-23.919 22.534-56.24 36.382-91.795 36.382-0.535 0-1.069-0.003-1.602-0.009l0.081 0.001c-77.019 0-139.456-62.437-139.456-139.456s62.437-139.456 139.456-139.456v0c80.593 0 133.645 56.657 133.645 136.435-0.049 9.353-0.851 18.481-2.348 27.372l0.138-0.992z" />
<glyph unicode="&#xe912;" glyph-name="check_box" d="M426 212.667l384 384-60 62-324-324-152 152-60-60zM810 810.667q36 0 61-25t25-61v-596q0-36-25-61t-61-25h-596q-36 0-61 25t-25 61v596q0 36 25 61t61 25h596z" />
<glyph unicode="&#xe913;" glyph-name="check_box_outline_blank" d="M810 810.667q34 0 60-26t26-60v-596q0-34-26-60t-60-26h-596q-34 0-60 26t-26 60v596q0 34 26 60t60 26h596zM810 724.667h-596v-596h596v596z" />
<glyph unicode="&#xe914;" glyph-name="stargrade" d="M512 202.667l-264-160 70 300-232 202 306 26 120 282 120-282 306-26-232-202 70-300z" />
<glyph unicode="&#xe915;" glyph-name="triangle-sharp-solid" d="M0 0l512 896 512-896h-1024z" />
<glyph unicode="&#xe916;" glyph-name="star_outline" d="M512 280.667l160-96-42 182 142 124-188 16-72 172-72-172-188-16 142-124-42-182zM938 544.667l-232-202 70-300-264 160-264-160 70 300-232 202 306 26 120 282 120-282z" />
<glyph unicode="&#xe917;" glyph-name="chat_bubble_outline" d="M854 256.667v512h-684v-598l86 86h598zM854 852.667q34 0 59-25t25-59v-512q0-34-25-60t-59-26h-598l-170-170v768q0 34 25 59t59 25h684z" />
<glyph unicode="&#xe918;" glyph-name="subdirectory_arrow_right" d="M810 298.667l-256-256-60 60 154 154h-478v512h86v-428h392l-154 154 60 60z" />
<glyph unicode="&#xe919;" glyph-name="i-linkedin" d="M872.4 87.4h-151.6v237.6c0 56.7-1.2 129.6-79 129.6-79.1 0-91.1-61.7-91.1-125.4v-241.8h-151.7v488.6h145.7v-66.6h2c20.4 38.4 69.8 78.9 143.8 78.9 153.6 0 182.1-101.1 182.1-232.7l-0.2-268.2zM227.7 642.9c-48.8 0-88 39.5-88 88.1s39.3 88 88 88c48.6 0 88.1-39.5 88.1-88 0-48.6-39.5-88.1-88.1-88.1zM303.7 87.4h-152v488.6h152.1v-488.6zM948.3 960h-872.7c-41.8 0-75.6-33-75.6-73.8v-876.5c0-40.7 33.8-73.7 75.6-73.7h872.6c41.7 0 75.9 33 75.9 73.8v876.4c-0.1 40.8-34.2 73.8-76 73.8h0.2z" />
<glyph unicode="&#xe91a;" glyph-name="i-snapchat" horiz-adv-x="951" d="M484.571 886.857c102.857 1.143 188-56.571 230.857-149.143 13.143-28 15.429-71.429 15.429-102.286 0-36.571-2.857-72.571-5.143-109.143 4.571-2.286 10.857-4 16-4 20.571 0 37.714 15.429 58.286 15.429 19.429 0 47.429-13.714 47.429-36.571 0-54.857-114.857-44.571-114.857-92.571 0-8.571 3.429-16.571 6.857-24.571 27.429-60 79.429-117.714 141.143-143.429 14.857-6.286 29.714-9.714 45.714-13.143 10.286-2.286 16-9.714 16-20 0-38.857-98.857-54.857-125.143-58.857-11.429-17.714-2.857-59.429-33.143-59.429-23.429 0-46.857 7.429-72 7.429-12 0-24-0.571-35.429-2.857-68-11.429-90.857-84.571-202.286-84.571-107.429 0-133.143 73.143-199.429 84.571-12 2.286-24 2.857-36 2.857-25.714 0-50.286-8.571-70.857-8.571-32 0-22.286 42.286-34.286 60.571-26.286 4-125.143 20-125.143 58.857 0 10.286 5.714 17.714 16 20 16 3.429 30.857 6.857 45.714 13.143 61.143 25.143 114.286 83.429 141.143 143.429 3.429 8 6.857 16 6.857 24.571 0 48-115.429 38.857-115.429 92 0 22.286 26.286 36.571 46.286 36.571 17.714 0 35.429-14.857 57.714-14.857 6.286 0 12.571 1.143 18.286 4-2.286 36-5.143 72-5.143 108.571 0 30.857 2.286 74.857 15.429 102.857 50.286 108.571 135.429 148 249.143 149.143z" />
<glyph unicode="&#xe91b;" glyph-name="i-telegram" horiz-adv-x="1365" d="M161.451 483.499c179.2 82.261 701.44 319.488 957.099 411.648 52.907 19.115 106.837-25.259 98.304-80.896l-114.347-745.472c-8.875-58.709-75.435-88.405-125.269-56.32l-331.093 214.016c-46.421 30.037-51.883 95.573-11.264 133.12l305.152 292.523c12.971 12.629-3.755 32.768-18.432 22.528l-435.541-304.469c-40.96-28.672-93.525-34.475-139.605-15.701l-183.637 74.752c-24.235 9.899-24.917 43.349-1.365 54.272z" />
<glyph unicode="&#xe91c;" glyph-name="i-discord" d="M867.6 779.6c-66.4 31.2-137.2 53.6-211.2 66.4-9.2-16.4-19.6-38.4-27.2-56-78.8 12-156.8 12-234 0-7.2 17.6-18.4 39.6-27.2 56-74.4-12.8-145.6-35.6-212-66.4-133.6-202-169.6-399.2-151.6-593.6 88.8-66.4 174.8-106.4 259.2-132.8 20.8 28.8 39.6 59.2 55.6 91.2-30.4 11.6-59.6 26-87.2 42.4 7.2 5.6 14.4 11.2 21.6 16.8 168.4-78.8 351.6-78.8 518 0 7.2-6 14-11.6 21.6-16.8-27.6-16.8-57.2-31.2-87.6-42.8 16-32 34.4-62.8 55.6-91.2 84.4 26.4 170.4 66.4 259.2 132.8 20.4 225.6-37.2 420.8-152.8 594zM342 305.6c-50.4 0-92 47.2-92 104.8s40.4 104.8 92 104.8c51.6 0 92.8-47.2 92-104.8 0-57.6-40.8-104.8-92-104.8zM682 305.6c-50.4 0-92 47.2-92 104.8s40.4 104.8 92 104.8c51.6 0 92.8-47.2 92-104.8 0-57.6-40.4-104.8-92-104.8z" />
<glyph unicode="&#xe91d;" glyph-name="i-megaphone" horiz-adv-x="1090" d="M781.891 85.499v0c-50.274 0-92.61 41.013-92.61 92.61v465.695c0 50.274 41.013 92.61 92.61 92.61v0c50.274 0 92.61-41.013 92.61-92.61v-465.695c-1.323-51.597-42.336-92.61-92.61-92.61zM530.522 146.357v0c-50.274 0-92.61 41.013-92.61 92.61v330.749c0 50.274 41.013 92.61 92.61 92.61v0c50.274 0 92.61-41.013 92.61-92.61v-332.072c0-50.274-41.013-91.287-92.61-91.287zM279.152 224.413v0c-50.274 0-92.61 41.013-92.61 92.61v185.22c0 50.274 41.013 92.61 92.61 92.61v0c50.274 0 92.61-41.013 92.61-92.61v-186.543c0-50.274-41.013-91.287-92.61-91.287z" />
<glyph unicode="&#xe91e;" glyph-name="i-anchor" horiz-adv-x="1365" d="M1079.979 583.509c0 0-35.84 17.067-72.704 5.803-27.648-8.192-58.027-29.013-75.435-72.704-33.451-83.627-4.437-229.376-15.701-229.376s-46.763 134.485-94.208 274.091c-47.445 139.947-88.405 285.013-162.816 273.408-65.877-10.24-45.397-176.128-19.456-331.093 23.211-140.629 50.176-272.384 34.816-272.384-27.648 0-118.101 388.779-210.603 374.101s26.624-443.051 1.707-444.075c-20.48-0.683-70.997 260.779-146.091 248.832-56.661-9.216-6.144-212.309-3.755-269.312 0.683-14.336 5.12-40.96-16.384-40.96h-42.325v-39.595h69.291c14.336 0.683 25.6 6.144 31.403 20.139 19.115 47.445-31.403 249.173-19.456 250.539 8.192 1.024 25.6-60.416 50.176-129.707s49.152-141.312 95.573-141.312c100.352 0-2.048 393.557 17.749 393.557 10.581 0 39.253-79.872 70.656-167.595 38.571-107.179 85.675-225.963 142.336-225.963 67.925 0 45.739 153.6 24.576 300.373-18.091 127.317-39.595 246.784-27.989 246.784 25.6 0 122.197-547.157 238.251-547.157 58.027 0 58.709 114.347 58.709 237.568 0 86.699-7.168 165.547 47.104 184.661 25.941 8.875 51.883-6.827 51.883-6.827s-27.307 108.203-27.307 108.203z" />
<glyph unicode="&#xe91f;" glyph-name="i-spotify" d="M512 898.56c-248.883 0-450.56-201.626-450.56-450.56 0-248.781 201.677-450.56 450.56-450.56 248.934 0 450.509 201.728 450.509 450.56 0 248.883-201.523 450.56-450.509 450.56zM690.074 217.498c-8.858 0-15.053 3.379-21.555 7.322-60.877 36.915-136.294 56.269-218.010 56.269-41.677 0-86.682-4.966-133.632-14.592l-5.734-1.434c-5.939-1.434-12.032-3.021-16.691-3.021-18.995 0-33.843 14.746-33.843 33.587 0 19.098 10.752 32.614 28.774 35.994 56.115 12.8 108.954 19.046 161.382 19.046 94.976 0 179.866-22.016 252.467-65.485 12.442-7.27 20.275-15.667 20.275-34.202-0.051-18.483-15.002-33.485-33.434-33.485zM736.819 348.621c-10.598 0-17.562 4.045-23.706 7.629-109.722 65.075-273.050 86.682-407.603 50.842-2.253-0.666-4.301-1.28-6.144-1.894-5.069-1.587-9.779-3.174-16.435-3.174-22.118 0-40.090 18.074-40.090 40.346 0 21.453 11.213 36.454 31.437 42.189 51.866 14.234 100.557 23.654 170.65 23.654 113.254 0 223.078-28.416 309.146-79.923 15.667-8.96 22.784-21.197 22.784-39.475 0-22.221-17.971-40.192-40.038-40.192zM789.862 498.125c-9.984 0-16.128 2.406-25.344 7.373-74.394 44.646-190.464 71.219-310.733 71.219-62.669 0-119.603-6.912-169.267-20.326-1.69-0.41-3.277-0.87-5.018-1.382-5.274-1.587-11.878-3.482-18.688-3.482-26.419 0-47.053 20.89-47.053 47.565 0 23.194 13.005 40.909 34.816 47.36 59.955 17.715 128.973 26.675 205.107 26.675 137.114 0 267.571-30.464 357.939-83.507 16.998-9.677 25.344-24.32 25.344-44.646 0-26.266-20.685-46.848-47.104-46.848z" />
<glyph unicode="&#xe920;" glyph-name="send" d="M86 42.667v298l640 86-640 86v298l896-384z" />
<glyph unicode="&#xe921;" glyph-name="person" d="M512 340.667q108 0 225-47t117-123v-86h-684v86q0 76 117 123t225 47zM512 426.667q-70 0-120 50t-50 120 50 121 120 51 120-51 50-121-50-120-120-50z" />
<glyph unicode="&#xe922;" glyph-name="full-view" d="M864 960h-768c-52.8 0-96-43.2-96-96v-832c0-52.8 43.2-96 96-96h768c52.8 0 96 43.2 96 96v832c0 52.8-43.2 96-96 96zM832 64h-704v768h704v-768zM256 512h448v-64h-448zM256 384h448v-64h-448zM256 256h448v-64h-448zM256 640h448v-64h-448z" />
<glyph unicode="&#xe923;" glyph-name="trending_neutral" d="M938 426.667l-170-170v128h-640v84h640v128z" />
<glyph unicode="&#xe924;" glyph-name="trending_up" d="M682 682.667h256v-256l-98 98-268-268-170 170-256-256-60 60 316 316 170-170 208 208z" />
<glyph unicode="&#xe925;" glyph-name="logout" d="M170 724.667v-596h342v-86h-342q-34 0-59 26t-25 60v596q0 34 25 60t59 26h342v-86h-342zM726 640.667l212-214-212-214-60 62 110 110h-434v84h434l-110 112z" />
<glyph unicode="&#xe926;" glyph-name="login" d="M470 640.667l-60-60 110-112h-434v-84h434l-110-112 60-60 212 214zM854 128.667h-342v-86h342q34 0 59 25t25 61v596q0 36-25 61t-59 25h-342v-86h342v-596z" />
<glyph unicode="&#xe927;" glyph-name="keyboard_tab" d="M854 682.667h84v-512h-84v512zM494 622.667l60 60 256-256-256-256-60 60 154 154h-606v84h606z" />
<glyph unicode="&#xe928;" glyph-name="person_outline" d="M512 384.667q64 0 140-18t139-60 63-94v-128h-684v128q0 52 63 94t139 60 140 18zM512 768.667q70 0 120-51t50-121-50-120-120-50-120 50-50 120 50 121 120 51zM512 302.667q-88 0-174-33t-86-57v-46h520v46q0 24-86 57t-174 33zM512 686.667q-38 0-64-26t-26-64 26-63 64-25 64 25 26 63-26 64-64 26z" />
<glyph unicode="&#xe929;" glyph-name="credit_card" d="M854 596.667v86h-684v-86h684zM854 170.667v256h-684v-256h684zM854 768.667q36 0 60-25t24-61v-512q0-36-24-61t-60-25h-684q-36 0-60 25t-24 61v512q0 36 24 61t60 25h684z" />
<glyph unicode="&#xe92a;" glyph-name="label" d="M752 688.667l186-262-186-262q-26-36-70-36h-468q-34 0-60 25t-26 59v428q0 34 26 59t60 25h468q44 0 70-36z" />
<glyph unicode="&#xe92b;" glyph-name="label_outline" d="M682 212.667l152 214-152 214h-468v-428h468zM752 688.667l186-262-186-262q-26-36-70-36h-468q-34 0-60 25t-26 59v428q0 34 26 59t60 25h468q44 0 70-36z" />
<glyph unicode="&#xe92c;" glyph-name="settings" d="M512 276.667q62 0 106 44t44 106-44 106-106 44-106-44-44-106 44-106 106-44zM830 384.667l90-70q14-10 4-28l-86-148q-8-14-26-8l-106 42q-42-30-72-42l-16-112q-4-18-20-18h-172q-16 0-20 18l-16 112q-38 16-72 42l-106-42q-18-6-26 8l-86 148q-10 18 4 28l90 70q-2 14-2 42t2 42l-90 70q-14 10-4 28l86 148q8 14 26 8l106-42q42 30 72 42l16 112q4 18 20 18h172q16 0 20-18l16-112q38-16 72-42l106 42q18 6 26-8l86-148q10-18-4-28l-90-70q2-14 2-42t-2-42z" />
<glyph unicode="&#xe92d;" glyph-name="video_settings" d="M128 682.667h768v-214h86v214q0 36-25 61t-61 25h-768q-36 0-61-25t-25-61v-512q0-36 25-61t61-25h384v86h-384v512zM640 426.667l-256 170v-340zM968 152.667q4 20 2 36l46 36q6 6 2 14l-44 76q-4 8-14 6l-54-22q-14 10-32 18l-8 58q-2 10-12 10h-88q-8 0-10-10l-8-58q-10-4-18-8t-14-10l-56 22q-8 4-12-4l-44-78q-4-8 2-12l46-38q-2-20 0-36l-46-36q-8-6-2-14l44-76q4-8 12-6l54 22q16-10 32-18l10-58q0-8 10-8h88q10 0 10 8l10 58 16 8t14 10l56-22q8-2 12 6l44 76q6 8-2 14zM810 106.667q-26 0-45 19t-19 45 19 45 45 19q28 0 46-19t18-45-18-45-46-19z" />
<glyph unicode="&#xe92e;" glyph-name="save_alt" d="M554 398.667l112 110 60-60-214-214-214 214 60 60 112-110v412h84v-412zM810 426.667h86v-298q0-34-26-60t-60-26h-596q-34 0-60 26t-26 60v298h86v-298h596v298z" />
<glyph unicode="&#xe92f;" glyph-name="fiber_manual_record" d="M170 426.667q0 140 101 241t241 101 241-101 101-241-101-241-241-101-241 101-101 241z" />
<glyph unicode="&#xe930;" glyph-name="format_list_bulleted" d="M298 724.667h598v-84h-598v84zM298 384.667v84h598v-84h-598zM298 128.667v84h598v-84h-598zM170 234.667q26 0 45-19t19-45-19-45-45-19-45 19-19 45 19 45 45 19zM170 746.667q26 0 45-18t19-46-19-46-45-18-45 18-19 46 19 46 45 18zM170 490.667q26 0 45-18t19-46-19-46-45-18-45 18-19 46 19 46 45 18z" />
<glyph unicode="&#xe931;" glyph-name="info_outline" d="M470 554.667v86h84v-86h-84zM512 84.667q140 0 241 101t101 241-101 241-241 101-241-101-101-241 101-241 241-101zM512 852.667q176 0 301-125t125-301-125-301-301-125-301 125-125 301 125 301 301 125zM470 212.667v256h84v-256h-84z" />
<glyph unicode="&#xe932;" glyph-name="file_download_done" d="M410 286.667l-196 196 84 80 112-110 316 316 84-86zM214 170.667h596v-86h-596v86z" />
<glyph unicode="&#xe933;" glyph-name="east" d="M640 724.667l-60-60 196-196h-690v-84h690l-196-196 60-60 298 298z" />
<glyph unicode="&#xe934;" glyph-name="error" d="M554 384.667v256h-84v-256h84zM554 212.667v86h-84v-86h84zM512 852.667q176 0 301-125t125-301-125-301-301-125-301 125-125 301 125 301 301 125z" />
<glyph unicode="&#xe935;" glyph-name="medium" d="M121.429 688.64c1.28 12.587-3.541 25.003-12.928 33.451l-95.573 115.2v17.195h296.832l229.461-503.253 201.728 503.253h283.051v-17.195l-81.792-78.379c-7.040-5.376-10.539-14.208-9.088-22.955v-576c-1.451-8.704 2.048-17.493 9.088-22.912l79.787-78.379v-17.195h-401.493v17.195l82.645 80.299c8.107 8.107 8.107 10.496 8.107 22.955v465.536l-229.973-584.021h-31.019l-267.733 584.021v-391.424c-2.219-16.469 3.243-33.024 14.805-44.928l107.52-130.56v-17.152h-304.853v17.195l107.52 130.56c11.52 11.861 16.64 28.587 13.909 44.885v452.608z" />
<glyph unicode="&#xe936;" glyph-name="signal" d="M512.512 849.152c-222.72 0-403.285-166.4-403.285-371.584 0-128.683 52.011-226.176 134.613-289.024h-0.213l9.984-129.792v-0.171c0-0.725 0-1.323 0.171-1.963v-0.256c1.024-6.144 6.4-10.88 12.843-10.88 2.261 0 4.267 0.64 6.144 1.493l0.469 0.341 123.563 71.424c36.437-8.363 75.392-12.757 115.627-12.757 222.72 0 403.285 166.357 403.285 371.627 0 205.227-180.608 371.584-403.371 371.584l0.171-0.043zM443.307 929.28c22.4 2.773 45.269 4.437 68.48 4.437 16.213 0 32-0.853 47.744-2.219l2.432 26.197c-16.64 1.493-33.237 2.304-50.091 2.304-24.32 0-48.427-1.536-72.149-4.651l3.541-26.112 0.043 0.043zM605.312 925.269c39.040-7.040 76.16-18.603 111.36-33.92l10.752 24.192c-5.632 2.389-11.221 4.779-16.939 7.040-32.512 12.8-66.176 22.357-100.48 28.629l-4.693-25.941zM996.523 474.88c-0.64-39.040-6.613-77.056-17.28-113.28l25.173-7.467c11.392 38.528 17.749 79.104 18.389 120.789l-26.283-0.043zM287.787 882.603c34.603 16.597 71.595 29.781 110.336 38.485l-5.76 25.771c-26.923-6.016-53.376-14.037-79.061-24.277-12.672-4.992-25.003-10.453-36.992-16.256l11.477-23.723zM870.187 822.912c-30.123 27.691-63.36 51.499-99.371 71.381l-13.269-23.083c34.603-18.987 66.603-41.856 94.891-68.096l17.749 19.712v0.085zM646.443 19.157c40.32 10.24 78.72 25.216 114.603 43.947l-13.44 22.741c-33.536-17.621-69.589-31.488-107.563-41.259l6.4-25.429zM156.885 789.12c26.88 27.221 57.472 51.2 90.88 71.467l-13.952 22.571c-29.781-18.005-57.6-38.997-82.987-62.848-4.352-4.011-8.533-8.149-12.8-12.331l18.731-18.816 0.128-0.043zM988.032 307.84l-24.235 10.069c-14.891-35.541-34.261-68.864-57.771-99.499l21.12-15.744c24.619 32.341 45.269 67.669 60.757 105.173h0.128zM884.309 770.859c25.856-28.8 47.872-60.8 65.451-95.061l23.68 11.733c-18.56 36.352-41.771 70.187-69.419 100.949l-19.84-17.621h0.128zM993.28 642.731l-24.235-10.411c13.355-35.328 22.229-72.661 25.771-111.36l26.24 2.603c-3.755 40.789-13.013 80.725-27.776 119.168zM272.469-14.891l-41.344-18.133-14.165 43.733-24.96-8.107 18.688-57.472c1.237-3.541 3.84-6.443 7.125-8.021 1.749-0.725 3.541-1.109 5.376-1.109s3.584 0.384 5.248 1.109l54.741 24.021-10.709 23.979zM435.584 36.011c-3.328 0.683-6.699 1.152-10.112 1.749l-19.84 3.371c-2.603 0.384-5.12 0-7.339-0.981l-83.243-36.395 11.563-23.637 78.72 34.261c5.333-0.896 10.667-1.749 15.829-2.517 2.901-0.725 5.931-1.109 8.917-1.621l5.504 25.771zM594.645 35.157c-27.008-4.437-54.656-6.656-82.859-6.656-11.648 0-22.4 0.64-32.939 1.621l-0.811-26.24c10.709-1.024 21.803-1.707 33.749-1.707 29.781 0 59.008 2.475 87.381 7.083l-4.437 25.856-0.085 0.043zM64.725 656.384c15.787 35.2 36.352 68.181 60.8 98.219l-20.053 17.365c-26.027-31.787-47.616-66.432-64.341-103.552l-0.427-0.896 24.021-11.136zM876.032 183.040c-26.112-27.776-55.893-52.437-88.32-73.728l14.464-21.973c34.389 22.357 65.749 48.64 93.44 78.037l-19.584 17.664zM41.387 339.157c-8.021 33.963-12.501 71.509-13.781 113.963h-26.283c1.28-45.696 6.187-85.547 14.72-121.301l25.344 7.339zM22.955 621.867c-12.672-38.827-19.968-79.061-21.76-120.021l26.24-1.28c1.792 39.381 8.917 77.483 20.779 113.579l-25.259 7.723zM202.112 56.107l-25.173 77.44c-0.853 2.56-2.389 4.651-4.48 6.272-9.899 7.765-19.157 15.616-28.16 23.808l-18.005-19.029c8.277-7.851 17.408-15.445 26.837-23.083l23.936-73.259 25.045 7.851zM112.299 196.565c-25.216 29.483-44.245 61.824-57.813 98.773l-24.448-9.771c1.749-4.565 3.541-9.216 5.376-13.739 14.080-33.963 32.896-64.384 57.259-92.8l19.627 17.536z" />
<glyph unicode="&#xe937;" glyph-name="substack" horiz-adv-x="901" d="M5.856 956.436h889.056v-122.629h-889.056v122.629zM5.856 727.676h889.056v-122.629h-889.056v122.629zM894.896-61.139l-438.63 251.148-450.409-251.148v559.586h889.039z" />
<glyph unicode="&#xe938;" glyph-name="menu" d="M128 682.667h768v-86h-768v86zM128 384.667v84h768v-84h-768zM128 170.667v86h768v-86h-768z" />
<glyph unicode="&#xe939;" glyph-name="menu_open" d="M896 272.667l-60-60-214 214 214 214 60-60-152-154zM128 682.667h554v-86h-554v86zM128 384.667v84h426v-84h-426zM128 170.667v86h554v-86h-554z" />
<glyph unicode="&#xe93a;" glyph-name="keyboard_arrow_down" d="M316 572.667l196-196 196 196 60-60-256-256-256 256z" />
<glyph unicode="&#xe93b;" glyph-name="keyboard_arrow_right" d="M366 230.667l196 196-196 196 60 60 256-256-256-256z" />
<glyph unicode="&#xe93c;" glyph-name="muckrack" d="M502.4 668.8h48v-480h-124.8v249.6l-144-124.8h-12.8l-140.8 128v-249.6h-124.8v480h44.8l227.2-208 227.2 204.8zM947.2 358.4c48 32 70.4 86.4 70.4 140.8 0 83.2-57.6 169.6-172.8 169.6-70.4 0-169.6 0-236.8 0v-480h128v147.2h73.6l73.6-147.2h128l3.2 22.4-80 140.8c9.6 6.4 12.8 6.4 12.8 6.4v0zM736 566.4h108.8c35.2 0 51.2-32 51.2-60.8s-16-64-51.2-64h-108.8v124.8z" />
<glyph unicode="&#xe93d;" glyph-name="amazon" horiz-adv-x="1126" d="M2.051 165.375c3.413 5.464 8.877 5.809 16.392 1.017 170.67-98.986 356.351-148.487 557.064-148.487 133.802 0 265.898 24.923 396.287 74.752 3.413 1.361 8.368 3.413 14.849 6.136s11.091 4.774 13.832 6.136c10.238 4.102 18.261 2.051 24.070-6.136s3.921-15.702-5.627-22.527c-12.289-8.877-27.991-19.115-47.106-30.714-58.705-34.816-124.254-61.773-196.61-80.906-72.356-19.115-143.023-28.681-211.967-28.681-106.501 0-207.192 18.606-302.076 55.801-94.883 37.213-179.891 89.601-254.97 157.182-4.102 3.413-6.136 6.825-6.136 10.238 0 2.051 0.69 4.102 2.051 6.136zM310.28 457.212c0 47.106 11.599 87.386 34.816 120.841s54.948 58.705 95.228 75.768c36.868 15.702 82.267 26.956 136.198 33.8 18.425 2.051 48.467 4.774 90.109 8.187v17.408c0 43.693-4.774 73.046-14.34 88.058-14.34 20.476-36.868 30.714-67.582 30.714h-8.187c-22.527-2.051-41.987-9.221-58.36-21.511-16.392-12.289-26.975-29.353-31.749-51.208-2.723-13.651-9.566-21.511-20.476-23.544l-117.755 14.34c-11.599 2.723-17.408 8.877-17.408 18.425 0 2.051 0.345 4.429 1.017 7.17 11.599 60.756 40.099 105.811 85.498 135.163 45.399 29.371 98.477 45.762 159.234 49.175h25.595c77.82 0 138.576-20.131 182.269-60.411 6.862-6.862 13.179-14.213 18.951-22.019 5.809-7.86 10.401-14.849 13.832-20.984 3.413-6.136 6.48-15.012 9.221-26.63 2.723-11.599 4.774-19.623 6.136-24.070 1.361-4.429 2.396-13.996 3.068-28.681 0.69-14.685 1.017-23.38 1.017-26.103v-247.818c0-17.753 2.56-33.963 7.679-48.649s10.075-25.268 14.849-31.749c4.774-6.48 12.634-16.9 23.544-31.24 4.102-6.136 6.136-11.599 6.136-16.392 0-5.464-2.723-10.238-8.187-14.34-56.654-49.157-87.386-75.768-92.16-79.871-8.187-6.136-18.098-6.825-29.697-2.051-9.566 8.187-17.917 16.047-25.087 23.544s-12.289 12.979-15.357 16.392-8.023 10.075-14.849 19.968c-6.825 9.893-11.599 16.555-14.34 19.968-38.229-41.642-75.768-67.582-112.636-77.82-23.217-6.825-51.88-10.238-86.025-10.238-52.57 0-95.736 16.21-129.536 48.649s-50.682 78.328-50.682 137.723zM486.414 477.688c0-26.63 6.662-47.959 19.968-64.006s31.24-24.070 53.768-24.070c2.051 0 4.956 0.345 8.695 1.017 3.758 0.69 6.317 1.017 7.679 1.017 28.681 7.515 50.863 25.94 66.565 55.292 7.515 12.979 13.142 27.138 16.9 42.495s5.809 27.828 6.136 37.376c0.345 9.548 0.508 25.268 0.508 47.106v25.595c-39.591 0-69.633-2.723-90.109-8.187-60.067-17.063-90.109-54.948-90.109-113.671zM916.501 147.967c1.361 2.723 3.413 5.464 6.136 8.187 17.063 11.599 33.455 19.459 49.157 23.544 25.94 6.825 51.208 10.583 75.768 11.273 6.825 0.69 13.306 0.345 19.459-1.017 30.714-2.723 49.157-7.86 55.292-15.357 2.723-4.102 4.102-10.238 4.102-18.425v-7.17c0-23.889-6.48-52.061-19.459-84.482s-31.059-58.542-54.276-78.328c-3.413-2.723-6.48-4.102-9.221-4.102-1.361 0-2.723 0.345-4.102 1.017-4.102 2.051-5.119 5.809-3.068 11.273 25.25 59.395 37.884 100.692 37.884 123.909 0 7.515-1.361 12.979-4.102 16.392-6.825 8.187-25.94 12.289-57.344 12.289-11.599 0-25.268-0.69-40.952-2.051-17.063-2.051-32.765-4.102-47.106-6.136-4.102 0-6.825 0.69-8.187 2.051s-1.706 2.723-1.017 4.102c0 0.69 0.345 1.706 1.017 3.068z" />
<glyph unicode="&#xe93e;" glyph-name="Podcast" horiz-adv-x="932" d="M579.134 307.2c-1.766 15.89-7.062 27.366-17.655 37.959-19.862 20.745-54.731 34.428-95.779 34.428s-75.917-13.241-95.779-34.428c-10.152-11.034-15.89-22.069-17.655-37.959-3.531-30.897-1.324-57.379 2.207-100.193 3.531-40.607 10.152-94.897 18.538-149.628 6.179-39.283 11.034-60.469 15.448-75.476 7.503-24.717 34.428-45.903 77.241-45.903s70.179 21.628 77.241 45.903c4.414 15.007 9.269 36.193 15.448 75.476 8.386 55.172 15.007 109.021 18.538 149.628 3.972 42.814 5.738 69.297 2.207 100.193zM574.279 532.303c0-60.028-48.552-108.579-108.579-108.579s-108.579 48.552-108.579 108.579 48.552 108.579 108.579 108.579 108.579-48.993 108.579-108.579zM464.375 960c-253.352-0.883-460.8-206.566-464.375-459.917-2.648-205.241 128.441-380.91 311.614-445.352 4.414-1.766 8.828 2.207 8.386 6.621-2.207 15.89-4.855 31.779-6.621 47.669-0.883 5.738-4.414 10.152-9.269 12.8-144.772 63.117-245.848 208.331-244.083 376.497 2.251 220.69 182.334 400.331 402.582 402.097 225.545 1.766 409.6-180.966 409.6-406.069 0-166.4-100.634-309.407-244.083-372.524-5.297-2.207-8.828-7.062-9.269-12.8-2.207-15.89-4.414-31.779-6.621-47.669-0.883-4.855 3.972-8.386 8.386-6.621 181.407 63.559 311.614 236.579 311.614 439.614-0.883 256.883-210.538 466.097-467.862 465.655zM453.782 805.517c-165.076-6.179-297.49-142.566-299.697-307.641-1.324-108.579 52.966-204.8 136.386-261.738 3.972-2.648 9.71 0.441 9.71 5.297-1.324 18.979-1.324 35.752-0.441 53.407 0.441 5.738-1.766 11.034-6.179 15.007-50.759 47.669-81.655 115.641-79.89 190.676 3.531 132.414 109.903 240.11 242.317 245.407 143.89 5.738 262.179-109.903 262.179-252.028 0-72.386-30.897-137.71-79.89-184.055-3.972-3.972-6.179-9.269-6.179-15.007 0.883-17.214 0.441-33.986-0.441-52.966-0.441-4.855 5.297-8.386 9.71-5.297 82.097 56.055 136.386 150.952 136.386 257.766 0.441 175.669-146.538 318.234-323.972 311.172z" />
<glyph unicode="&#xe93f;" glyph-name="bars-light" horiz-adv-x="896" d="M0 800c0 17.68 14.328 32 32 32h832c17.6 0 32-14.32 32-32s-14.4-32-32-32h-832c-17.672 0-32 14.32-32 32zM0 480c0 17.6 14.328 32 32 32h832c17.6 0 32-14.4 32-32s-14.4-32-32-32h-832c-17.672 0-32 14.4-32 32zM864 128h-832c-17.672 0-32 14.4-32 32s14.328 32 32 32h832c17.6 0 32-14.4 32-32s-14.4-32-32-32z" />
<glyph unicode="&#xe940;" glyph-name="bars-solid" horiz-adv-x="896" d="M0 832h896v-128h-896v128zM0 512h896v-128h-896v128zM896 192v-128h-896v128h896z" />
<glyph unicode="&#xe941;" glyph-name="earth-americas-light" d="M0 448c0 282.8 229.2 512 512 512s512-229.2 512-512c0-282.8-229.2-512-512-512s-512 229.2-512 512zM512 0c215 0 394.6 151.4 438 353.6l-91.6 22.8c-32 8-57.4 33.4-67.8 62.8l-33.8 101.4c-16.2 48.2 8.2 100.6 55.4 119.6l76.4 30.6c-78.6 121.56-214.4 202.72-369.4 205.14l14.2-24.9c20.2-35.22 16-79.3-10.4-110.1l-40.4-46.94c-5-4.2-5-14.6 0-20.6l35.8-43c19.8-23.8 21.6-58 4.4-83.8-17.6-26.4-50.6-37.8-80.6-27.8l-48.4 16.2c-4.8 1.6-11.6 1.2-14.2 0.8-9.2-6.4-13-17.6-8.4-26.8l1.4-2.6c2.2-4.2 5.6-7.6 9.8-9.8l91.6-45.8c9-4.4 18.8-5 28.6-5h97.6c34 0 66.6-15.2 90.6-39.2l7.8-7.8c24-24 37.4-56.6 37.4-90.6v-16.4c0-46-24.6-88.4-64.4-111.2l-23.2-13.2c-18.4-10.4-31.6-28-36.6-48.4l-8.8-35.2c-10.6-42.2-48.6-71.8-92.2-71.8-52.4 0-94.8 42.4-94.8 94.8v45.4c0 11.6-5.6 18.8-14.4 23.2-30.4 15.2-49.6 46.4-49.6 80.4v30c0 32.6-21.2 61.2-52.2 71l-126.080 39.4c-43.92 13.8-79.8 45.6-98.48 87.8l-5.92 13.2c-3.5-22.6-5.32-45.6-5.32-67.4 0-249.2 200.6-449.8 448-449.8v0zM96.040 614.6l37.68-84.6c11.22-25.4 32.74-44.4 59.1-52.8l125.98-39.4c57.8-18 97.2-71.4 97.2-132v-30c0-9.8 5.6-18.8 14.4-23.2 30.4-15.2 49.6-46.4 49.6-80.4v-45.4c0-17 13.8-30.8 30.8-30.8 14.2 0 26.6 9.6 30 23.4l8.8 35.2c9.4 37.2 33.6 69.2 67 88.4l23.2 13.2c19.8 11.4 32.2 32.6 32.2 55.6v16.4c0 17-6.8 33.2-18.8 45.2l-7.8 7.8c-12 12-28.2 18.8-45.2 18.8h-97.6c-19.8 0-39.4 4.6-57.2 13.6l-91.8 45.8c-16.4 8.2-30 21.8-38.2 38.2l-1.4 2.8c-20.4 40.8-3.8 90.4 37 110.8 19.6 9.8 42.2 11.4 63 4.6l48.4-16.2c2.6-1 5.6 0 7.2 4.2 1.4 0.6 1.4 3.6-0.4 5.6l-35.8 43c-25 30-24.8 73.6 0.8 103.2l40.2 46.98c8.8 10.26 10.2 24.96 3.4 36.7l-29.8 52.18c-160.4-22.94-293.44-130.88-351.96-276.86v0zM919.6 634.2l-85.4-33.4c-14-6.4-22.2-23.8-16.8-40l33.8-101.4c3.6-10.4 12-18.2 22.6-20.8l85.2-21.4c0.6 10.2 1 20.4 1 30.8 0 66.4-14.4 129.4-40.4 186.2v0z" />
<glyph unicode="&#xe942;" glyph-name="globe-light" d="M512 960c282.8 0 512-229.2 512-512s-229.2-512-512-512c-282.8 0-512 229.2-512 512s229.2 512 512 512zM512 0c33.4 0 80.8 28.8 123.8 114.6 19.8 39.6 36.4 89.2 46.4 141.4h-342.2c11.8-52.2 28.4-101.8 48.2-141.4 43-85.8 90.4-114.6 123.8-114.6v0zM328.6 320h366.8c5.6 40.4 8.6 83.4 8.6 128s-3 87.6-8.6 128h-366.8c-5.6-40.4-8.6-83.4-8.6-128s3-87.6 8.6-128v0zM682.2 640c-10 54-26.6 101.8-46.4 141.42-43 85.84-90.4 114.58-123.8 114.58s-80.8-28.74-123.8-114.58c-19.8-39.62-36.4-87.42-48.2-141.42h342.2zM758.2 576c7-41 9.8-83.8 9.8-128s-2.8-87-9.8-128h183.2c12.2 40.6 18.6 83.6 18.6 128s-6.4 87.4-18.6 128h-183.2zM655 872.68c42-56.66 75.2-137.48 94.4-232.68h167.4c-51.6 109-146.2 193.76-261.8 232.68v0zM369 872.68c-115.6-38.92-210.12-123.68-261.88-232.68h167.48c19.2 95.2 52.4 176.020 94.4 232.68v0zM64 448c0-44.4 6.48-87.4 18.56-128h181.44c-5.2 41-8 83.8-8 128s2.8 87 8 128h-181.44c-12.080-40.6-18.56-83.6-18.56-128v0zM916.8 256h-167.4c-19.2-95.2-52.4-176-94.4-232.6 115.6 38.8 210.2 123.6 261.8 232.6zM274.6 256h-167.48c51.76-109 146.28-193.8 261.88-232.6-42 56.6-75.2 137.4-94.4 232.6v0z" />
<glyph unicode="&#xe943;" glyph-name="notifications" d="M768 256.667l86-86v-42h-684v42l86 86v212q0 100 51 174t141 96v30q0 26 18 45t46 19 46-19 18-45v-30q90-22 141-96t51-174v-212zM512 0.667q-36 0-61 24t-25 60h172q0-34-26-59t-60-25z" />
<glyph unicode="&#xe944;" glyph-name="magnifying-glass-light" d="M1014.6-9.4l-283 283c62.4 72.8 98.6 167 98.6 270.4 0 229.8-186.26 416-416 416s-414.2-186.26-414.2-416 186.24-416 414.2-416c103.36 0 197.7 37.92 270.4 100.3l283-283c8-6.1 16.2-9.3 24.4-9.3s16.376 3.124 22.62 9.376c12.58 12.424 12.58 32.824-0.020 45.224zM416 192c-195.8 0-352 158-352 352s156.2 352 352 352 352-156.2 352-352-158-352-352-352z" />
<glyph unicode="&#xe945;" glyph-name="magnifying-glass-solid" d="M832 544c0-91.8-29.8-176.6-80-245.4l266.6-266.6-90.6-90.6-266.6 266.6c-68.8-50.4-153.6-80-245.4-80-229.8 0-416 186.2-416 416s186.2 416 416 416 416-186.2 416-416zM416 256c159 0 288 129 288 288s-129 288-288 288-288-129-288-288 129-288 288-288z" />
<glyph unicode="&#xe946;" glyph-name="user-check-light" horiz-adv-x="1280" d="M549.4 352h-202.8c-191.38 0-346.6-155.2-346.6-346.6 0-38.4 31.040-69.4 69.32-69.4h757.28c38.4 0 69.4 31 69.4 69.4 0 191.4-155.2 346.6-346.6 346.6zM826.6 0h-757.28c-2.92 0-5.32 2.4-5.32 5.4 0 155.8 126.8 282.6 282.6 282.6h202.8c155.8 0 282.6-126.8 282.6-282.6 0-3-2.4-5.4-5.4-5.4zM448 448c141.4 0 256 114.62 256 256s-114.6 256-256 256c-141.4 0-256-114.62-256-256s114.6-256 256-256zM448 896c105.88 0 192-86.12 192-192 0-105.86-86.12-192-192-192s-192 86.2-192 192c0 105.88 86.2 192 192 192zM1270.6 652c-12.5 12.5-32.76 12.5-45.24 0l-190.68-190.72-84.060 84.040c-12.5 12.5-32.76 12.5-45.24 0s-12.5-32.76 0-45.24l106.68-106.66c6.34-6.22 14.54-9.42 22.54-9.42s16.376 3.124 22.62 9.376l213.4 213.4c12.58 12.424 12.58 32.624-0.020 45.224z" />
<glyph unicode="&#xe947;" glyph-name="user-light" horiz-adv-x="896" d="M448 448c141.4 0 256 114.62 256 256s-114.6 256-256 256c-141.4 0-256-114.62-256-256s114.6-256 256-256zM448 896c105.88 0 192-86.12 192-192 0-105.86-86.12-192-192-192s-192 86.2-192 192c0 105.88 86.2 192 192 192zM549.4 352h-202.8c-191.38 0-346.6-155.2-346.6-346.6 0-38.28 31.040-69.34 69.32-69.34h757.4c38.28-0.060 69.28 30.94 69.28 69.34 0 191.4-155.2 346.6-346.6 346.6zM826.6 0h-757.28c-2.92 0-5.32 2.4-5.32 5.4 0 155.8 126.8 282.6 282.6 282.6h202.6c156 0 282.8-126.8 282.8-282.6 0-3-2.4-5.4-5.4-5.4z" />
<glyph unicode="&#xe948;" glyph-name="xmark-large-light" horiz-adv-x="896" d="M841.4 886.62c12.4 12.5 32.8 12.5 45.2 0 12.6-12.48 12.6-32.74 0-45.24l-393.4-393.38 393.4-393.4c12.6-12.4 12.6-32.8 0-45.2-12.4-12.6-32.8-12.6-45.2 0l-393.4 393.4-393.38-393.4c-12.48-12.6-32.74-12.6-45.248 0-12.496 12.4-12.496 32.8 0 45.2l393.428 393.4-393.428 393.38c-12.496 12.48-12.496 32.74 0 45.24 12.488 12.5 32.748 12.5 45.248 0l393.38-393.42 393.4 393.42z" />
<glyph unicode="&#xe949;" glyph-name="xmark-large-solid" horiz-adv-x="896" d="M141.2 845.2l-45.2 45.4-90.6-90.6 352-352-352-352 90.6-90.6 352 352 352-352 90.6 90.6-352 352 352 352-90.6 90.6-45.2-45.4-306.8-306.6-306.8 306.6z" />
<glyph unicode="&#xe94a;" glyph-name="xmark-light" horiz-adv-x="640" d="M630.6 137.4c-12.506-12.506-32.74-12.506-45.26 0l-265.34 265.4-265.4-265.4c-12.506-12.506-32.74-12.506-45.26 0-12.506 12.506-12.506 32.74 0 45.26l265.46 265.34-265.42 265.4c-12.506 12.506-12.506 32.74 0 45.26 12.506 12.506 32.74 12.506 45.26 0l265.36-265.46 265.4 265.4c12.506 12.506 32.74 12.506 45.26 0 12.506-12.506 12.506-32.74 0-45.26l-265.46-265.34 265.4-265.4c12.6-12.4 12.6-32.8 0-45.2z" />
<glyph unicode="&#xe94b;" glyph-name="xmark-solid" horiz-adv-x="640" d="M589.2 626.8l45.4 45.2-90.6 90.6-224-224-178.8 178.6-45.2 45.4-90.6-90.6 224-224-178.6-178.8-45.4-45.2 90.6-90.6 224 224 224-224 90.6 90.6-224 224 178.8 178.8z" />
<glyph unicode="&#xe94c;" glyph-name="plus-large-solid" d="M576 896v64h-128v-448h-448v-128h448v-448h128v448h448v128h-448v384z" />
<glyph unicode="&#xe94d;" glyph-name="envelope-circle-check-light" horiz-adv-x="1280" d="M128 768h768c35.4 0 64-28.6 64-64v-65.4c10.6 1 21.2 1.4 32 1.4s21.4-0.4 32-1.4v65.4c0 70.6-57.4 128-128 128h-768c-70.6 0-128-57.4-128-128v-512c0-70.6 57.4-128 128-128h592.4c-16.2 19.6-30.4 41.2-42 64h-550.4c-35.4 0-64 28.6-64 64v352.8l353.4-259c56.4-41.2 133-41.2 189.2 0l34.2 25c2 32.4 8.6 63.6 18.8 93.2l-90.8-66.6c-33.8-24.8-79.8-24.8-113.6 0l-391.2 286.8v79.8c0 35.4 28.6 64 64 64zM992 512c123.712 0 224-100.288 224-224s-100.288-224-224-224v0c-123.712 0-224 100.288-224 224s100.288 224 224 224v0zM992 0c159.058 0 288 128.942 288 288s-128.942 288-288 288v0c-159.058 0-288-128.942-288-288s128.942-288 288-288v0zM1126.6 374.6c-12.4 12.4-32.8 12.4-45.2 0l-121.4-121.4-57.4 57.4c-12.4 12.4-32.8 12.4-45.2 0s-12.4-32.8 0-45.2l80-80c12.4-12.4 32.8-12.4 45.2 0l144 144c12.4 12.4 12.4 32.8 0 45.2z" />
<glyph unicode="&#xe94e;" glyph-name="envelope-light" d="M128 768c-35.4 0-64-28.6-64-64v-79.8l391.2-286.8c33.8-24.8 79.8-24.8 113.6 0l391.2 286.8v79.8c0 35.4-28.6 64-64 64h-768zM64 544.8v-352.8c0-35.4 28.6-64 64-64h768c35.4 0 64 28.6 64 64v352.8l-353.4-259c-56.4-41.2-133-41.2-189.2 0l-353.4 259zM0 704c0 70.6 57.4 128 128 128h768c70.6 0 128-57.4 128-128v-512c0-70.6-57.4-128-128-128h-768c-70.6 0-128 57.4-128 128v512z" />
<glyph unicode="&#xe94f;" glyph-name="chevron-down-solid" d="M512 101.4l474.6 474.6-90.6 90.6-384-384-384 384-90.6-90.6 474.6-474.6z" />
<glyph unicode="&#xe950;" glyph-name="browsers-light" horiz-adv-x="1152" d="M1024 960c70.6 0 128-57.3 128-128v-576c0-70.6-57.4-128-128-128h-704c-70.6 0-128 57.4-128 128v576c0 70.7 57.4 128 128 128h704zM1024 896h-512v-128h576v64c0 35.34-28.6 64-64 64zM256 832v-64h192v128h-128c-35.4 0-64-28.66-64-64zM320 192h704c35.4 0 64 28.6 64 64v448h-832v-448c0-35.4 28.6-64 64-64zM64 192c0-106 85.96-192 192-192h672c17.6 0 32-14.4 32-32s-14.4-32-32-32h-672c-141.38 0-256 114.6-256 256v544c0 17.6 14.328 32 32 32 17.68 0 32-14.4 32-32v-544z" />
<glyph unicode="&#xe951;" glyph-name="newspaper-light" d="M928 896h-640c-53 0-96-43.060-96-96v-672c0-35.32-28.72-64-64-64s-64 28.68-64 64v608c0 17.6-14.32 32-32 32s-32-14.4-32-32v-608c0-70.56 57.4-128 128-128h736c88.22 0 160 71.76 160 160v640c0 52.94-43 96-96 96zM960 160c0-52.94-43.060-96-96-96h-625.2c11 18.8 17.2 40.6 17.2 64v672c0 17.62 14.4 32 32 32h640c17.6 0 32-14.38 32-32v-640zM544 352h-192c-17.6 0-32-14.4-32-32s14.312-32 32-32h192c17.688 0 32 14.312 32 32s-14.4 32-32 32zM864 352h-192c-17.6 0-32-14.4-32-32s14.312-32 32-32h192c17.688 0 32 14.312 32 32s-14.4 32-32 32zM544 224h-192c-17.6 0-32-14.4-32-32s14.312-32 32-32h192c17.688 0 32 14.312 32 32s-14.4 32-32 32zM864 224h-192c-17.688 0-32-14.312-32-32s14.312-32 32-32h192c17.688 0 32 14.312 32 32s-14.4 32-32 32zM832 768h-448c-35.4 0-64-28.6-64-64v-192c0-35.34 28.66-64 64-64h448c35.34 0 64 28.66 64 64v192c0 35.4-28.6 64-64 64zM832 512h-448v192h448v-192z" />
<glyph unicode="&#xe952;" glyph-name="arrow-trend-up-solid" horiz-adv-x="1152" d="M704 768h382v-64h64v-382h-126v227.6l-384-384.2-256 256-274.8-274.6-90.4 90.4 365.2 365.4 256-256 293.4 293.4h-229.4v128zM1088 704h64v64h-64v-64z" />
<glyph unicode="&#xe953;" glyph-name="circle-solid" d="M512-64c282.8 0 512 229.2 512 512s-229.2 512-512 512-512-229.2-512-512 229.2-512 512-512z" />
<glyph unicode="&#xe954;" glyph-name="rectangle-ad-light" horiz-adv-x="1152" d="M573.2 301.2c7.2-16.2 0-33.4-16-42.4-16.2-7.2-35.2 0-42.4 16l-20.2 45.2h-189.2l-20.2-45.2c-9-16-26.2-23.2-42.4-16-16 9-23.2 26.2-16 42.4l144 320c3.4 11.4 16.6 18.8 29.2 18.8s24-7.4 29.2-18.8l144-320zM334.2 384h131.6l-67.6 147.8-64-147.8zM832 608c0 17.6 14.4 32 32 32s32-14.4 32-32v-320c0-17.6-14.4-32-32-32-15.2 0-28 10.6-31.2 24.8-23-15.6-52.6-24.8-80.8-24.8-79.6 0-144 64.4-144 144s64.4 144 144 144c29.6 0 57.2-9 80-24.2v88.2zM752 480c-44.2 0-80-35.8-80-80s35.8-80 80-80c44.2 0 80 35.8 80 80s-35.8 80-80 80zM0 768c0 70.7 57.3 128 128 128h896c70.6 0 128-57.3 128-128v-640c0-70.6-57.4-128-128-128h-896c-70.7 0-128 57.4-128 128v640zM64 768v-640c0-35.4 28.66-64 64-64h896c35.4 0 64 28.6 64 64v640c0 35.34-28.6 64-64 64h-896c-35.34 0-64-28.66-64-64z" />
<glyph unicode="&#xe955;" glyph-name="rectangle-ad-regular-1" horiz-adv-x="1152" d="M1152 896h-1152v-896h1152v896zM736 400c0-26.51 21.49-48 48-48s48 21.49 48 48v0c0 26.51-21.49 48-48 48s-48-21.49-48-48v0zM784 544c16.8 0 33-2.8 48-8.2v104.2h96v-384h-96v8.2c-15-5.4-31.2-8.2-48-8.2-79.6 0-144 64.4-144 144s64.4 144 144 144zM384.6 640h71.6l12.2-29.6 146.4-354.4h-104l-19.8 48h-148l-20.8-48h-104.6l154.4 355.2 12.6 28.8zM385 400h66.6l-32.4 78.4-34.4-78.4z" />
<glyph unicode="&#xe956;" glyph-name="location_on" d="M512 448.667q44 0 75 31t31 75-31 75-75 31-75-31-31-75 31-75 75-31zM512 852.667q124 0 211-87t87-211q0-62-31-142t-75-150-87-131-73-97l-32-34q-12 14-32 37t-72 92-91 134-71 147-32 144q0 124 87 211t211 87z" />
<glyph unicode="&#xe957;" glyph-name="cancel-2" d="M506.149 922.99c-98.889 0-195.145-31.89-274.578-90.843s-137.655-142.043-166.181-236.69c-28.526-94.647-25.746-196.023 7.753-289.061 33.646-93.038 96.256-172.763 178.615-227.328 82.505-54.711 180.224-81.335 278.967-75.922 98.743 5.266 193.243 42.277 269.312 105.472s129.902 149.211 153.307 245.175c23.406 96.11 15.214 197.193-23.259 288.183-35.255 83.383-94.208 154.478-169.691 204.507-75.191 49.883-163.694 76.507-254.245 76.507v0zM506.149 117.394v0c-91.575 0-179.346 36.425-244.151 101.083s-101.083 152.576-101.083 244.151 36.425 179.346 101.083 244.151 152.722 101.083 244.151 101.083 179.346-36.425 244.151-101.083c64.805-64.805 101.083-152.576 101.083-244.151s-36.425-179.346-101.083-244.151c-64.658-64.658-152.576-101.083-244.151-101.083v0zM593.189 631.442l-86.894-86.894-86.894 86.894-81.92-81.92 86.894-86.894-86.894-86.894 81.92-81.92 86.894 86.894 86.894-86.894 81.92 81.92-86.894 86.894 86.894 86.894-81.92 81.92z" />
<glyph unicode="&#xe958;" glyph-name="megaphone" d="M881.818 612.864c-81.101 188.723-211.558 332.288-277.555 305.51-112.077-45.619 66.765-264.397-483.686-488.090-47.565-19.405-59.597-96.666-39.68-142.95 19.866-46.182 84.89-92.211 132.454-72.909 8.243 3.379 38.451 13.107 38.451 13.107 33.946-45.619 69.478-18.586 82.125-47.514 15.155-34.816 48.077-110.49 59.29-136.192s36.608-49.51 55.040-42.496c18.381 7.014 80.998 30.822 104.96 39.885 23.962 9.114 29.645 30.515 22.323 47.309-7.885 18.176-40.243 23.501-49.51 44.698-9.216 21.094-39.373 88.986-48.026 110.387-11.776 29.082 13.261 52.787 49.664 56.525 250.573 26.214 297.421-128.614 382.72-93.901 65.894 26.88 52.48 218.061-28.57 406.63zM853.606 306.893c-14.694-5.888-113.306 71.782-176.282 218.47-63.027 146.586-55.091 280.576-40.448 286.566 14.643 5.888 110.848-87.91 173.824-234.496 63.027-146.586 57.549-264.55 42.906-270.541z" />
<glyph unicode="&#xe959;" glyph-name="next-btn" horiz-adv-x="582" d="M565.979 447.269c0.439 10.825-3.365 21.797-11.703 29.989l-456.558 456.704c-15.653 15.653-41.545 15.214-56.905-0.146-15.653-15.653-15.799-41.106-0.146-56.759l429.641-429.641-429.641-429.787c-15.653-15.653-15.506-41.106 0.146-56.759 15.214-15.214 41.106-15.799 56.759-0.146l456.704 456.558c8.192 8.338 12.142 19.31 11.703 29.989v0z" />
<glyph unicode="&#xe95a;" glyph-name="cancel" d="M726 272.667l-154 154 154 154-60 60-154-154-154 154-60-60 154-154-154-154 60-60 154 154 154-154zM512 852.667q176 0 301-125t125-301-125-301-301-125-301 125-125 301 125 301 301 125z" />
<glyph unicode="&#xe95b;" glyph-name="tv" d="M981.188 671.892c-88.808 12.768-183.382 22.016-282.076 27.22l164.888 164.888-64 64-224.558-224.556c-21.006 0.368-42.156 0.556-63.442 0.556v0l-256 256-64-64 194.196-194.196c-120.922-4.242-236.338-14.524-343.386-29.912-27.532-107.726-42.81-226.752-42.81-351.892s15.278-244.166 42.804-351.89c143.642-20.652 302.34-32.11 469.196-32.11s325.55 11.458 469.188 32.11c27.534 107.724 42.812 226.75 42.812 351.89s-15.278 244.166-42.812 351.892zM863.892 85.406c-107.73-13.766-226.75-21.406-351.892-21.406s-244.166 7.64-351.892 21.406c-20.648 71.816-32.108 151.166-32.108 234.594 0 83.43 11.458 162.78 32.108 234.596 107.726 13.766 226.75 21.404 351.892 21.404 125.136 0 244.162-7.638 351.886-21.404 20.656-71.816 32.114-151.166 32.114-234.596 0-83.428-11.458-162.778-32.108-234.594z" />
<glyph unicode="&#xe95c;" glyph-name="check_circle" d="M426 212.667l384 384-60 62-324-324-152 152-60-60zM512 852.667q176 0 301-125t125-301-125-301-301-125-301 125-125 301 125 301 301 125z" />
<glyph unicode="&#xe95d;" glyph-name="x-twitter" d="M778.4 864h141.2l-308.4-352.4 362.8-479.6h-284l-222.6 290.8-254.4-290.8h-141.4l329.8 377-347.8 455h291.2l201-265.8 232.6 265.8zM728.8 116.4h78.2l-504.8 667.6h-84l510.6-667.6z" />
<glyph unicode="&#xe95e;" glyph-name="Mastodon" horiz-adv-x="973" d="M966.4 732.8c-16 108.8-112 195.2-227.2 214.4-19.2 3.2-92.8 12.8-262.4 12.8v0c-169.6 0-208-9.6-227.2-12.8-112-16-214.4-96-236.8-204.8-12.8-54.4-12.8-115.2-12.8-172.8 3.2-80 3.2-160 9.6-240 6.4-54.4 12.8-105.6 25.6-156.8 22.4-96 118.4-176 211.2-208 99.2-35.2 208-38.4 310.4-16 12.8 3.2 22.4 6.4 32 9.6 25.6 6.4 54.4 16 76.8 32 0 0 0 0 0 0s0 0 0 0v76.8c0 0 0 0 0 0s0 0 0 0 0 0 0 0 0 0 0 0c-67.2-16-134.4-22.4-201.6-22.4-115.2 0-147.2 54.4-156.8 76.8-6.4 19.2-12.8 41.6-12.8 60.8 0 0 0 0 0 0s0 0 0 0 0 0 0 0 0 0 0 0c64-16 131.2-22.4 198.4-22.4 16 0 32 0 48 0 67.2 3.2 137.6 6.4 204.8 19.2 3.2 0 3.2 0 3.2 0 105.6 19.2 204.8 83.2 214.4 240 0 6.4 0 64 0 70.4 6.4 28.8 12.8 163.2 3.2 243.2zM806.4 342.4h-108.8v265.6c0 54.4-22.4 83.2-70.4 83.2-51.2 0-80-35.2-80-99.2v-144h-108.8v144c0 67.2-25.6 99.2-80 99.2-48 0-70.4-28.8-70.4-86.4v-265.6h-108.8v272c0 54.4 16 99.2 44.8 134.4 28.8 32 67.2 51.2 118.4 51.2 57.6 0 99.2-22.4 128-64l28.8-44.8 28.8 44.8c28.8 41.6 70.4 64 128 64 48 0 86.4-16 118.4-51.2 28.8-32 44.8-76.8 44.8-134.4l-12.8-268.8z" />
<glyph unicode="&#xe95f;" glyph-name="opencritic" d="M384 944c73.6 19.2 153.6 22.4 227.2 6.4 89.6-16 172.8-57.6 240-118.4-32-32-67.2-67.2-99.2-99.2-25.6 22.4-54.4 38.4-83.2 54.4-73.6 35.2-160 41.6-236.8 22.4-64-16-121.6-44.8-169.6-89.6-44.8-41.6-80-96-99.2-156.8-22.4-67.2-25.6-140.8-6.4-211.2 16-57.6 44.8-112 86.4-156.8s96-80 153.6-99.2c73.6-25.6 153.6-25.6 227.2-3.2 48 16 89.6 38.4 128 70.4 32-32 67.2-67.2 99.2-99.2-38.4-32-80-60.8-124.8-80-51.2-22.4-108.8-38.4-166.4-44.8-73.6-6.4-147.2 3.2-214.4 25.6-57.6 19.2-112 51.2-160 89.6-41.6 35.2-76.8 73.6-105.6 118.4-35.2 54.4-60.8 118.4-70.4 182.4-12.8 76.8-9.6 156.8 9.6 230.4 16 54.4 41.6 112 76.8 160 32 44.8 73.6 86.4 121.6 121.6s105.6 60.8 166.4 76.8v0zM796.8 684.8c32 32 67.2 67.2 99.2 99.2 38.4-44.8 70.4-92.8 89.6-147.2 22.4-57.6 35.2-121.6 35.2-182.4 0-64-9.6-128-32-185.6s-54.4-112-96-160l-99.2 99.2c44.8 54.4 73.6 121.6 83.2 188.8 6.4 44.8 3.2 89.6-6.4 134.4-9.6 57.6-38.4 112-73.6 153.6v0zM390.4 755.2c76.8 32 163.2 32 240 0 0 0 3.2 0 3.2 0 0-44.8 0-92.8 0-137.6-41.6-41.6-80-80-121.6-121.6-35.2 35.2-70.4 70.4-105.6 105.6-6.4 6.4-9.6 9.6-16 16 0 44.8 0 89.6 0 137.6v0zM204.8 569.6c44.8 0 89.6 0 134.4 0 3.2 0 3.2 0 3.2-3.2 38.4-38.4 80-80 118.4-118.4-41.6-41.6-80-80-121.6-121.6-44.8 0-92.8 0-137.6 0-16 38.4-22.4 76.8-22.4 118.4 3.2 41.6 9.6 86.4 25.6 124.8v0zM668.8 560c3.2 3.2 6.4 9.6 12.8 12.8 44.8 0 89.6 0 137.6 0 16-38.4 22.4-76.8 22.4-118.4s-6.4-83.2-22.4-121.6c0-3.2 0-3.2-3.2-6.4-44.8 0-92.8 0-137.6 0-41.6 41.6-83.2 80-121.6 121.6 38.4 38.4 76.8 73.6 112 112v0zM457.6 348.8c19.2 19.2 35.2 35.2 54.4 54.4 41.6-41.6 80-80 121.6-121.6 0-6.4 0-12.8 0-19.2 0-38.4 0-80 0-118.4-38.4-16-76.8-22.4-118.4-22.4s-86.4 6.4-128 22.4c0 44.8 0 89.6 0 137.6 25.6 19.2 48 44.8 70.4 67.2z" />
<glyph unicode="&#xe960;" glyph-name="threads" horiz-adv-x="899" d="M457.6-64v0c-153.6 0-272 51.2-348.8 150.4-70.4 86.4-108.8 208-108.8 361.6v0c0 153.6 38.4 275.2 108.8 361.6 76.8 99.2 195.2 150.4 348.8 150.4v0 0c118.4 0 214.4-32 291.2-89.6 70.4-54.4 121.6-134.4 150.4-233.6l-86.4-25.6c-48 169.6-166.4 256-355.2 256-124.8 0-217.6-38.4-278.4-115.2-57.6-70.4-86.4-172.8-89.6-304 0-131.2 32-233.6 86.4-307.2 60.8-76.8 153.6-115.2 278.4-115.2 112 0 185.6 25.6 246.4 86.4 70.4 70.4 70.4 153.6 48 204.8-12.8 28.8-38.4 54.4-70.4 73.6-9.6-57.6-25.6-105.6-54.4-140.8-38.4-48-92.8-73.6-160-76.8-51.2-3.2-99.2 9.6-137.6 35.2-44.8 28.8-70.4 73.6-73.6 128-3.2 51.2 16 96 57.6 131.2 38.4 32 89.6 51.2 153.6 54.4 44.8 3.2 89.6 0 128-6.4-6.4 32-16 57.6-32 73.6-22.4 25.6-54.4 38.4-99.2 38.4 0 0 0 0 0 0-35.2 0-86.4-9.6-115.2-57.6l-73.6 51.2c41.6 60.8 108.8 96 192 96 0 0 0 0 3.2 0 137.6 0 217.6-83.2 224-230.4 3.2-3.2 9.6-3.2 12.8-6.4 64-28.8 108.8-73.6 134.4-131.2 35.2-76.8 38.4-204.8-67.2-304-83.2-73.6-179.2-108.8-313.6-108.8v0 0zM499.2 435.2c-9.6 0-19.2 0-32 0-76.8-3.2-128-41.6-124.8-92.8 3.2-54.4 60.8-80 118.4-76.8 51.2 3.2 121.6 22.4 131.2 156.8-25.6 9.6-57.6 12.8-92.8 12.8z" />
<glyph unicode="&#xe961;" glyph-name="trending-4" horiz-adv-x="802" d="M693.508 629.508c-55.607 109.115-123.803 207.738-223.475 280.131-46.164 33.574-56.656 31.475-68.197-24.131-20.984-95.475-69.246-225.574-134.295-295.869-6.295-6.295-11.541-12.59-17.836-18.885-9.443 13.639-27.279 50.361-28.328 89.18-3.148 62.951-17.836 40.918-44.066 12.59-56.656-61.902-88.131-137.443-110.164-217.18-32.525-109.115-32.525-229.77-3.148-314.754 0-1.049 1.049-2.098 1.049-4.197 0-1.049 1.049-2.098 1.049-3.148 1.049-2.098 1.049-3.148 2.098-5.246 17.836-47.213 49.311-93.377 90.23-130.098 17.836-16.787 55.607-31.475 84.984-33.574-3.148 20.984-8.393 39.869-9.443 59.803-1.049 13.639-1.049 27.279-1.049 39.869 5.246 48.262 33.574 80.787 105.967 109.115 92.328 24.131 160.525 101.77 160.525 194.098 0 24.131-4.197 46.164-12.59 67.148v0 0c32.525-33.574 52.459-74.492 65.049-119.607 24.131-86.033 18.885-172.066 4.197-259.148-5.246-32.525-13.639-65.049-20.984-100.721 9.443 4.197 16.787 7.344 24.131 11.541 115.41 59.803 177.311 158.426 196.197 284.328 19.934 133.246-1.049 259.148-61.902 378.754z" />
<glyph unicode="&#xe962;" glyph-name="no-image" horiz-adv-x="1001" d="M594.076 694.229c0 60.971 48.464 109.435 109.435 109.435s109.435-48.464 109.435-109.435-48.464-109.435-109.435-109.435-109.435 48.464-109.435 109.435zM84.421 919.353l45.337-46.901c43.774 35.957 98.492 56.281 157.899 56.281h423.67c125.069 0 232.94-90.675 243.884-217.307 17.197-176.66 17.197-323.615 0-503.402-4.69-43.774-20.324-82.858-43.774-115.689l48.464-48.464c12.507-12.507 12.507-31.267 0-43.774s-31.267-12.507-43.774 0l-875.481 875.481c-12.507 12.507-12.507 31.267 0 43.774s31.267 12.507 43.774 0zM175.096 828.678l465.881-465.881c84.421 39.084 176.66 43.774 262.644 17.197 4.69 107.872 0 209.49-10.944 326.742-7.817 90.675-87.548 159.463-181.35 159.463h-423.67c-42.211 0-81.295-14.070-112.562-37.521zM59.408 777.087c-7.817-20.324-14.070-43.774-15.634-67.224-17.197-176.66-17.197-322.052 0-500.275 12.507-126.632 120.379-218.87 245.447-218.87h423.67c39.084 0 76.605 9.38 109.435 25.014l-46.901 46.901c-18.76-6.253-40.647-10.944-62.534-10.944h-423.67c-93.802 0-173.533 70.351-182.913 162.589-15.634 173.533-17.197 315.798 0 489.331 0 7.817 1.563 15.634 3.127 23.45l-50.027 50.027z" />
<glyph unicode="&#xe963;" glyph-name="change" horiz-adv-x="819" d="M767.59 817.459c0 0 0 0 0 0l-180.224 115.507c-13.107 8.192-30.31 9.011-44.237 1.638s-22.118-22.118-22.118-37.683v-67.994h-242.483c-128.614 0-232.653-104.858-232.653-232.653v-54.067c0-26.214 21.299-47.514 47.514-47.514s47.514 21.299 47.514 47.514v54.067c0 76.186 62.259 138.445 138.445 138.445h242.483v-69.632c0-15.565 8.192-30.31 22.118-37.683 6.554-3.277 13.926-4.915 20.48-4.915 8.192 0 16.384 2.458 22.938 6.554l180.224 115.507c12.288 8.192 19.661 21.299 19.661 36.045s-7.373 28.672-19.661 36.864zM726.63 606.925c-26.214 0-47.514-21.299-47.514-47.514v-54.067c0-76.186-62.259-138.445-138.445-138.445h-242.483v68.813c0 15.565-8.192 30.31-22.118 37.683s-30.31 7.373-44.237-1.638l-180.224-115.507c-12.288-8.192-19.661-21.299-19.661-36.045s7.373-28.672 19.661-36.045c0 0 0 0 0 0l180.224-115.507c7.373-4.915 14.746-6.554 22.938-6.554 7.373 0 13.926 1.638 20.48 4.915 13.926 7.373 22.118 22.118 22.118 37.683v67.994h243.302c128.614 0 232.653 104.858 232.653 232.653v54.067c0 26.214-21.299 47.514-46.694 47.514z" />
<glyph unicode="&#xe964;" glyph-name="fire-sharp-solid" horiz-adv-x="896" d="M0 407c0 265 352 553 352 553s129-118.6 177.2-178.8c22 28.8 94.8 85.8 94.8 85.8s272-226.8 272-459.8c0-255.6-199.6-471.2-448-471.2-251.2 0-448 215.8-448 471zM451.4 128c50.6 0 95.4 14 137.6 42 84.2 58.8 106.8 176.4 56.2 268.8-5.6 11.2-11.2 22.4-19.6 33.6l-101.2-117.6s-162.8 207.2-174.2 221.2c-84-103.6-126.2-162.4-126.2-229.6 0-137.2 101.2-218.4 227.4-218.4z" />
<glyph unicode="&#xe965;" glyph-name="comment-light" d="M512 832c-260.4 0-448-169.2-448-352 0-74.2 31-141.2 80-200 10.4-12.6 16.8-29.6 14.8-47.8-6.2-54-22.8-105-51.4-152.6-1-1.8-2.2-3.6-3.2-5.2 22.2 5.8 44.4 14 65.4 23v0c34 14.8 66 33.4 96.8 54.8 17 11.8 38.8 15 58.4 8.4 61.2-20.8 123.2-32.6 187.2-32.6 260.4 0 448 169.2 448 352s-187.6 352-448 352zM0 480c0 229.6 229 416 512 416s512-186.4 512-416-229-416-512-416c-72 0-141 13.4-207.6 35.8-0.4 0.2-1 0-1.4-0.2-33.8-23.4-69.4-44.2-107.8-61-48-20.8-105.8-38.6-163.2-38.6-13 0-24.6 7.8-29.6 19.6s-2.2 25.6 6.8 34.8c16.2 16.4 30.4 36.4 43.4 58 23.4 39.2 37.4 81.2 42.6 126.2 0 0-0.2 0.2-0.2 0.4-55.8 66.8-95 147.8-95 241z" />
<glyph unicode="&#xe966;" glyph-name="heart-sharp-light" d="M512 677.4l-93.8 93.8c-38.8 39-91.6 60.8-146.6 60.8-114.6 0-207.6-93-207.6-207.6 0-55 21.8-107.8 60.8-146.8l387.2-387.2 387.2 387.2c39 39 60.8 91.8 60.8 146.8 0 114.6-93 207.6-207.6 207.6-55 0-107.8-21.8-146.8-60.8l-48.4-48.4-45.2-45.4zM557.2 45.2l-45.2-45.2-432.4 432.4c-51 51-79.6 120-79.6 192 0 150 121.6 271.6 271.6 271.6 72 0 141-28.6 192-79.6l48.4-48.4 48.4 48.4c51 51 120 79.6 192 79.6 150 0 271.6-121.6 271.6-271.6 0-72-28.6-141-79.6-192l-387.2-387.2z" />
<glyph unicode="&#xe967;" glyph-name="heart-sharp-solid" d="M79.6 432.4l432.4-432.4 432.4 432.4c51 51 79.6 120 79.6 192 0 150-121.6 271.6-271.6 271.6-72 0-141-28.6-192-79.6l-48.4-48.4-48.4 48.4c-51 51-120 79.6-192 79.6-150 0-271.6-121.6-271.6-271.6 0-72 28.6-141 79.6-192z" />
<glyph unicode="&#xe968;" glyph-name="paper-plane-top-light" d="M6.8 803.4c-12 24-7.8 53 10.6 72.6s47 25.4 71.8 15l896-384c23.6-10 38.8-33.2 38.8-58.8s-15.2-48.8-38.8-58.8l-896-384c-24.6-10.6-53.4-4.6-71.8 15s-22.6 48.6-10.6 72.6l177.6 355-177.6 355.4zM240 416l-176-352 821.4 352h-645.4zM885.4 480l-821.4 352 176-352h645.4z" />
<glyph unicode="&#xe969;" glyph-name="comment-regular" d="M247.2 177.4c25.8 18.8 59.2 23.6 89.2 12.8 53-19.2 112.4-30.2 175.6-30.2 249.4 0 416 161 416 320s-166.6 320-416 320-416-161-416-320c0-64 24.8-125.6 71.4-178.4 17.2-19.4 25.6-45 23.6-71-2.8-36.2-11.4-69.4-22.6-98.8 34 15.8 62.2 33.4 78.8 45.4zM42.4 96.2c3.6 5.4 7 10.8 10.2 16.2 20 33.2 39 76.8 42.8 125.8-60 68.2-95.4 151.6-95.4 241.8 0 229.8 229.2 416 512 416s512-186.2 512-416-229.2-416-512-416c-74.2 0-144.6 12.8-208.2 35.8-23.8-17.4-62.6-41.2-108.6-61.2-30.2-13.2-64.6-25.2-100.2-32.2-1.6-0.4-3.2-0.6-4.8-1-8.8-1.6-17.4-3-26.4-3.8-0.4 0-1-0.2-1.4-0.2-10.2-1-20.4-1.6-30.6-1.6-13 0-24.6 7.8-29.6 19.8s-2.2 25.6 6.8 34.8c8.2 8.4 15.6 17.4 22.6 27 3.4 4.6 6.6 9.2 9.6 13.8 0.2 0.4 0.4 0.6 0.6 1z" />
<glyph unicode="&#xe96a;" glyph-name="circle-user-solid" d="M798 191.6c-44.2 76.8-127.2 128.4-222 128.4h-128c-94.8 0-177.8-51.6-222-128.4 70.4-78.4 172.4-127.6 286-127.6s215.6 49.4 286 127.6zM0 448c0 282.77 229.23 512 512 512s512-229.23 512-512v0c0-282.77-229.23-512-512-512s-512 229.23-512 512v0zM512 416c79.529 0 144 64.471 144 144s-64.471 144-144 144v0c-79.529 0-144-64.471-144-144s64.471-144 144-144v0z" />
<glyph unicode="&#xe96b;" glyph-name="list-tree-regular" d="M48 864c-26.6 0-48-21.4-48-48v-96c0-26.6 21.4-48 48-48v-480c0-61.8 50.2-112 112-112h96c0-26.6 21.4-48 48-48h96c26.6 0 48 21.4 48 48v96c0 26.6-21.4 48-48 48h-96c-26.6 0-48-21.4-48-48h-96c-8.8 0-16 7.2-16 16v208h112c0-26.6 21.4-48 48-48h96c26.6 0 48 21.4 48 48v96c0 26.6-21.4 48-48 48h-96c-26.6 0-48-21.4-48-48h-112v176c26.6 0 48 21.4 48 48v96c0 26.6-21.4 48-48 48h-96zM320 768c0-26.6 21.4-48 48-48h608c26.6 0 48 21.4 48 48s-21.4 48-48 48h-608c-26.6 0-48-21.4-48-48zM576 448c0-26.6 21.4-48 48-48h352c26.6 0 48 21.4 48 48s-21.4 48-48 48h-352c-26.6 0-48-21.4-48-48zM576 128c0-26.6 21.4-48 48-48h352c26.6 0 48 21.4 48 48s-21.4 48-48 48h-352c-26.6 0-48-21.4-48-48z" />
<glyph unicode="&#xe96c;" glyph-name="comment-solid" d="M1024 480c0-229.8-229.2-416-512-416-74.2 0-144.6 12.8-208.2 35.8-23.8-17.4-62.6-41.2-108.6-61.2-48-20.8-105.8-38.6-163.2-38.6-13 0-24.6 7.8-29.6 19.8s-2.2 25.6 6.8 34.8v0 0 0 0l0.6 0.6c0.6 0.6 1.4 1.4 2.6 2.8 2.2 2.4 5.6 6.2 9.8 11.4 8.2 10 19.2 24.8 30.4 43.2 20 33.2 39 76.8 42.8 125.8-60 68-95.4 151.4-95.4 241.6 0 229.8 229.2 416 512 416s512-186.2 512-416z" />
<glyph unicode="&#xe96d;" glyph-name="circle-chevron-down-sharp-light" d="M512 896c-247.424 0-448-200.576-448-448s200.576-448 448-448v0c247.424 0 448 200.576 448 448s-200.576 448-448 448v0zM512-64c-282.77 0-512 229.23-512 512s229.23 512 512 512v0c282.77 0 512-229.23 512-512s-229.23-512-512-512v0zM534.6 265.4l-22.6-22.6-269.2 269.2 45.2 45.2 224-224 224 224 45.2-45.2-246.6-246.6z" />
<glyph unicode="&#xe96e;" glyph-name="calendar" d="M938.688 864h-138.688v64c0 17.696-14.304 32-32 32s-32-14.304-32-32v-64h-192v64c0 17.696-14.336 32-32 32s-32-14.304-32-32v-64h-192v64c0 17.696-14.336 32-32 32s-32-14.304-32-32v-64h-138.656c-47.136 0-85.344-38.176-85.344-85.312v-757.344c0-47.136 38.208-85.344 85.344-85.344h853.344c47.136 0 85.312 38.208 85.312 85.344v757.344c0 47.136-38.176 85.312-85.312 85.312zM960 21.344c0-11.776-9.568-21.344-21.312-21.344h-853.344c-11.776 0-21.344 9.568-21.344 21.344v757.344c0 11.744 9.568 21.312 21.344 21.312h138.656v-64c0-17.696 14.336-32 32-32s32 14.304 32 32v64h192v-64c0-17.696 14.336-32 32-32s32 14.304 32 32v64h192v-64c0-17.696 14.304-32 32-32s32 14.304 32 32v64h138.688c11.744 0 21.312-9.568 21.312-21.312v-757.344zM224 576h128v-96h-128zM224 416h128v-96h-128zM224 256h128v-96h-128zM448 256h128v-96h-128zM448 416h128v-96h-128zM448 576h128v-96h-128zM672 256h128v-96h-128zM672 416h128v-96h-128zM672 576h128v-96h-128z" />
<glyph unicode="&#xe96f;" glyph-name="comments-light" horiz-adv-x="1280" d="M64 608c0 149.6 147.4 288 352 288s352-138.4 352-288-147.4-288-352-288c-30.6 0-61.2 3.8-92.6 10-7 1.4-14.2 0.4-20.4-2.8-12.2-6.2-24-12-36-17.4-56.8-25.8-120.4-46.2-183-52 29.8 38 53.6 79.4 75.2 119.8 6.6 12.2 4.6 27.2-5 37.2-54.2 56.8-90.2 119-90.2 193.2zM416 960c-229.8 0-416-157.8-416-352 0-88.4 39.6-160.2 92-220-23.4-42-48-81.2-79-115v0l-0.2-0.2c-13-14-16.4-34.2-8.8-51.6 7.6-17.8 24.8-29.2 44-29.2 86 0 173 26.6 245.4 59.4 9.8 4.4 19.2 9 28.6 13.6 30.6-5.6 61.8-9.2 94-9.2 229.8 0 416 157.8 416 352s-186.2 352.2-416 352.2zM894.8 639c188.4-13 321.2-145 321.2-287 0-74.2-36-136.4-90.2-193.2-9.6-10-11.6-25-5-37.2 21.8-40.4 45.4-81.6 75.2-119.8-62.6 6-126.4 26.4-183 52-12 5.4-23.8 11.2-36 17.4-6.4 3.2-13.6 4.2-20.4 2.8-31.2-6.2-61.8-10-92.6-10-136.4 0-247.2 61.4-306.2 146.6-22-6-44.6-10.4-67.6-13.6 67.8-116.6 209.6-197 373.8-197 32.2 0 63.4 3.6 94 9.2 9.2-4.6 18.8-9.2 28.6-13.6 72.4-33 159.4-59.6 245.4-59.6 19.2 0 36.4 11.4 44 29 7.6 17.4 4 37.8-8.8 51.6l-0.2 0.2c-31 34-55.6 73-79 115 52.4 59.8 92 131.6 92 220 0 188.8-175.6 343-396.4 351.6 5.6-20.8 9.4-42.4 11.2-64.6z" />
<glyph unicode="&#xe970;" glyph-name="thumbtack-solid" horiz-adv-x="768" d="M64 896c0 35.4 28.6 64 64 64h512c35.4 0 64-28.6 64-64s-28.6-64-64-64h-59l22.8-296.4c73.4-39.8 131.4-106.4 159-189.4l2-6c6.6-19.6 3.2-41-8.8-57.6s-31.4-26.6-52-26.6h-640c-20.6 0-39.8 9.8-52 26.6s-15.4 38.2-8.8 57.6l2 6c27.6 83 85.6 149.6 159 189.4l22.8 296.4h-59c-35.4 0-64 28.6-64 64zM320 192h128v-192c0-35.4-28.6-64-64-64s-64 28.6-64 64v192z" />
<glyph unicode="&#xe971;" glyph-name="user" d="M576 253.388v52.78c70.498 39.728 128 138.772 128 237.832 0 159.058 0 288-192 288s-192-128.942-192-288c0-99.060 57.502-198.104 128-237.832v-52.78c-217.102-17.748-384-124.42-384-253.388h896c0 128.968-166.898 235.64-384 253.388z" />
<glyph unicode="&#xe972;" glyph-name="medal-light" d="M212.8 577c15 15.6 31.2 29.8 48.4 42.8l-184.2 276.2h206.8l123.2-205.4c21.8 5.6 44.4 9.6 67.6 11.8l-136 226.6c-11.6 19.2-32.4 31-54.8 31h-234.6c-27.2 0-49.2-22-49.2-49.2 0-9.6 2.8-19.2 8.2-27.2l204.6-306.6zM549.4 702.4c23.2-2 45.8-6 67.6-11.8l123.2 205.4h206.8l-184-276.2c17.2-13 33.4-27.4 48.4-42.8l204.4 306.6c5.4 8 8.2 17.6 8.2 27.2 0 27.2-22 49.2-49.2 49.2h-234.6c-22.4 0-43.4-11.8-54.8-31l-136-226.6zM512 576c159.058 0 288-128.942 288-288s-128.942-288-288-288v0c-159.058 0-288 128.942-288 288s128.942 288 288 288v0zM512-64c194.404 0 352 157.596 352 352s-157.596 352-352 352v0c-194.404 0-352-157.596-352-352s157.596-352 352-352v0zM589.6 395l-34.6 70.2c-17.6 35.6-68.4 35.6-86 0l-34.6-70.2-77.4-11.2c-39.4-5.8-55-54.2-26.6-81.8l56-54.6-13.4-77.4c-6.8-39.2 34.4-69.2 69.6-50.6l69.4 36.4 69.2-36.4c35.2-18.6 76.4 11.4 69.6 50.6l-13.2 77.2 56 54.6c28.4 27.8 12.8 76.2-26.6 81.8l-77.4 11.2zM488 359l24 48.6 24-48.6c7-14.2 20.6-24 36.2-26.2l53.6-7.8-38.8-37.8c-11.4-11-16.4-27-13.8-42.4l9.2-53.4-48 25.2c-14 7.4-30.6 7.4-44.6 0l-48-25.2 9.2 53.4c2.6 15.6-2.4 31.4-13.8 42.4l-38.8 37.8 53.6 7.8c15.6 2.2 29.2 12 36.2 26.2z" />
<glyph unicode="&#xe973;" glyph-name="pen-to-square-light" d="M909.2 869.4l24.2-24.2c25-25 25-65.6 0-90.6l-53.4-53.4-114.8 114.8 53.4 53.4c25 25 65.6 25 90.6 0zM378 428.8l342 342 114.8-114.8-342-342c-8.4-8.4-19.2-14.4-30.8-17.2l-131.2-30.2 30.2 131.4c2.6 11.6 8.6 22.4 17.2 30.8zM773.4 914.8l-440.6-440.8c-17-17-28.8-38.4-34.2-61.8l-41.8-181.2c-2.4-10.8 0.8-22 8.6-29.8s19-11 29.8-8.6l181.2 41.8c23.4 5.4 44.8 17.2 61.8 34.2l440.6 440.8c50 50 50 131 0 181l-24.2 24.4c-50 50-131 50-181 0zM160 832c-88.4 0-160-71.6-160-160v-576c0-88.4 71.6-160 160-160h576c88.4 0 160 71.6 160 160v256c0 17.6-14.4 32-32 32s-32-14.4-32-32v-256c0-53-43-96-96-96h-576c-53 0-96 43-96 96v576c0 53 43 96 96 96h256c17.6 0 32 14.4 32 32s-14.4 32-32 32h-256z" />
<glyph unicode="&#xe974;" glyph-name="logout1" d="M170 724.667v-596h342v-86h-342q-34 0-59 26t-25 60v596q0 34 25 60t59 26h342v-86h-342zM726 640.667l212-214-212-214-60 62 110 110h-434v84h434l-110 112z" />
<glyph unicode="&#xe975;" glyph-name="user-check" d="M960 352l-288-288-96 96-64-64 160-160 352 352zM448 192h320v115.128c-67.22 39.2-156.308 66.11-256 74.26v52.78c70.498 39.728 128 138.772 128 237.832 0 159.058 0 288-192 288s-192-128.942-192-288c0-99.060 57.502-198.104 128-237.832v-52.78c-217.102-17.748-384-124.42-384-253.388h448v64z" />
<glyph unicode="&#xe976;" glyph-name="message-dots-regular" d="M416 128c0 53-43 96-96 96h-192c-17.6 0-32 14.4-32 32v576c0 17.6 14.4 32 32 32h768c17.6 0 32-14.4 32-32v-576c0-17.6-14.4-32-32-32h-277.4c-20.8 0-41-6.8-57.6-19.2l-145-108.8v32zM415.6-24.4l0.4 0.4 202.6 152h277.4c70.6 0 128 57.4 128 128v576c0 70.6-57.4 128-128 128h-768c-70.6 0-128-57.4-128-128v-576c0-70.6 57.4-128 128-128h192v-160c0-12.2 6.8-23.2 17.6-28.6s23.8-4.2 33.6 3l44.4 33.2zM288 480c35.346 0 64 28.654 64 64s-28.654 64-64 64v0c-35.346 0-64-28.654-64-64s28.654-64 64-64v0zM576 544c0 35.346-28.654 64-64 64s-64-28.654-64-64v0c0-35.346 28.654-64 64-64s64 28.654 64 64v0zM736 480c35.346 0 64 28.654 64 64s-28.654 64-64 64v0c-35.346 0-64-28.654-64-64s28.654-64 64-64v0z" />
<glyph unicode="&#xe977;" glyph-name="quotes-left" d="M225 512c123.712 0 224-100.29 224-224 0-123.712-100.288-224-224-224s-224 100.288-224 224l-1 32c0 247.424 200.576 448 448 448v-128c-85.474 0-165.834-33.286-226.274-93.726-11.634-11.636-22.252-24.016-31.83-37.020 11.438 1.8 23.16 2.746 35.104 2.746zM801 512c123.71 0 224-100.29 224-224 0-123.712-100.29-224-224-224s-224 100.288-224 224l-1 32c0 247.424 200.576 448 448 448v-128c-85.474 0-165.834-33.286-226.274-93.726-11.636-11.636-22.254-24.016-31.832-37.020 11.44 1.8 23.16 2.746 35.106 2.746z" />
<glyph unicode="&#xe978;" glyph-name="quotes-right" d="M800 320c-123.712 0-224 100.29-224 224 0 123.712 100.288 224 224 224s224-100.288 224-224l1-32c0-247.424-200.576-448-448-448v128c85.474 0 165.834 33.286 226.274 93.726 11.634 11.636 22.252 24.016 31.83 37.020-11.438-1.8-23.16-2.746-35.104-2.746zM224 320c-123.71 0-224 100.29-224 224 0 123.712 100.29 224 224 224s224-100.288 224-224l1-32c0-247.424-200.576-448-448-448v128c85.474 0 165.834 33.286 226.274 93.726 11.636 11.636 22.254 24.016 31.832 37.020-11.44-1.8-23.16-2.746-35.106-2.746z" />
<glyph unicode="&#xe979;" glyph-name="messages-light" horiz-adv-x="1280" d="M405.4 384h298.6c35.4 0 64 28.6 64 64v384c0 35.4-28.6 64-64 64h-576c-35.4 0-64-28.6-64-64v-384c0-35.4 28.6-64 64-64h64c35.4 0 64-28.6 64-64v-32l111 83.2c11 8.4 24.6 12.8 38.4 12.8zM704 320h-298.6l-162.2-121.6c-9.6-7.2-22.6-8.4-33.6-3s-17.6 16.4-17.6 28.6v96h-64c-70.6 0-128 57.4-128 128v384c0 70.6 57.4 128 128 128h576c70.6 0 128-57.4 128-128v-384c0-70.6-57.4-128-128-128zM640 64c-70.6 0-128 57.4-128 128v64h64v-64c0-35.4 28.6-64 64-64h234.6c13.8 0 27.4-4.4 38.4-12.8l111-83.2v32c0 35.4 28.6 64 64 64h64c35.4 0 64 28.6 64 64v384c0 35.4-28.6 64-64 64h-256v64h256c70.6 0 128-57.4 128-128v-384c0-70.6-57.4-128-128-128h-64v-96c0-12.2-6.8-23.2-17.6-28.6s-23.8-4.2-33.6 3l-162.2 121.6h-234.6zM175 800h-15v-64h240v64h-225zM211.2 672h-51.2v-64h512v64h-460.8zM192 560h-32v-64h320v64h-288z" />
<glyph unicode="&#xe97a;" glyph-name="reel-light" horiz-adv-x="896" d="M0 928c0 17.6 14.4 32 32 32h832c17.6 0 32-14.4 32-32s-14.4-32-32-32h-96v-128c0-17.6-14.4-32-32-32h-576c-17.6 0-32 14.4-32 32v128h-96c-17.6 0-32 14.4-32 32zM192 896v-96h512v96h-512zM128 640c0 17.6 14.4 32 32 32h576c17.6 0 32-14.4 32-32s-14.4-32-32-32h-576c-17.6 0-32 14.4-32 32zM128 512c0 17.6 14.4 32 32 32h704c17.6 0 32-14.4 32-32s-14.4-32-32-32h-704c-17.6 0-32 14.4-32 32zM128 384c0 17.6 14.4 32 32 32h576c17.6 0 32-14.4 32-32s-14.4-32-32-32h-576c-17.6 0-32 14.4-32 32zM128 256c0 17.6 14.4 32 32 32h576c17.6 0 32-14.4 32-32s-14.4-32-32-32h-576c-17.6 0-32 14.4-32 32zM32-64c-17.6 0-32 14.4-32 32s14.4 32 32 32h96v128c0 17.6 14.4 32 32 32h576c17.6 0 32-14.4 32-32v-128h96c17.6 0 32-14.4 32-32s-14.4-32-32-32h-832zM192 96v-96h512v96h-512z" />
<glyph unicode="&#xe97b;" glyph-name="users" horiz-adv-x="1152" d="M768 189.388v52.78c70.498 39.728 128 138.772 128 237.832 0 159.058 0 288-192 288s-192-128.942-192-288c0-99.060 57.502-198.104 128-237.832v-52.78c-217.102-17.748-384-124.42-384-253.388h896c0 128.968-166.898 235.64-384 253.388zM327.196 164.672c55.31 36.15 124.080 63.636 199.788 80.414-15.054 17.784-28.708 37.622-40.492 59.020-30.414 55.234-46.492 116.058-46.492 175.894 0 86.042 0 167.31 30.6 233.762 29.706 64.504 83.128 104.496 159.222 119.488-16.914 76.48-61.94 126.75-181.822 126.75-192 0-192-128.942-192-288 0-99.060 57.502-198.104 128-237.832v-52.78c-217.102-17.748-384-124.42-384-253.388h279.006c14.518 12.91 30.596 25.172 48.19 36.672z" />
<glyph unicode="&#xe97c;" glyph-name="bookmark-1" d="M128-15.398c0-26.803 21.8-48.602 48.6-48.602 10 0 19.8 3.002 28 8.8l307.4 215.2 307.398-215.2c8.205-5.798 18.003-8.8 28-8.8 26.803 0 48.602 21.798 48.602 48.602v879.398c0 53-43.002 96-96 96h-576c-53 0-96-43-96-96v-879.398zM512.031 768c10.5 0 19.701-6.801 22.901-16.701l50.604-159.31h158.509c10.304 0 19.405-6.5 22.701-16.201 3.302-9.7 0.102-20.401-8-26.702l-130.807-101.806 51.005-159.907c3.2-10.106-0.403-20.902-9.101-27.002-8.704-6.106-20.205-5.805-28.506 0.698l-129.306 100.506-129.308-100.608c-8.301-6.4-19.901-6.701-28.502-0.698-8.6 5.997-12.301 16.998-9.101 27.002l51.004 160.010-130.808 101.806c-8.1 6.301-11.3 17.002-8.001 26.702s12.401 16.201 22.701 16.201h158.51l50.603 159.31c3.201 9.9 12.401 16.701 22.902 16.701z" />
<glyph unicode="&#xe97d;" glyph-name="bookmark" d="M128 864c0 53 43 96 96 96h576c52.998 0 96-43 96-96v-883.802c0-24.397-19.802-44.198-44.198-44.198-8.8 0-17.203 2.598-24.602 7.398l-315.2 210.202-315.2-210.202c-7.2-4.8-15.8-7.398-24.6-7.398-24.4 0-44.2 19.802-44.2 44.198v883.802zM224 896c-17.6 0-32-14.4-32-32v-846.797l302.2 201.395c10.799 7.2 24.8 7.2 35.599 0l302.2-201.395v846.797c0 17.6-14.4 32-32 32h-576zM534.932 751.299c-3.2 9.9-12.401 16.701-22.901 16.701s-19.701-6.801-22.902-16.701l-50.603-159.31h-158.51c-10.301 0-19.401-6.5-22.701-16.201s-0.1-20.401 8.001-26.702l130.808-101.806-51.004-160.010c-3.2-10.003 0.5-21.005 9.101-27.002 8.6-6.003 20.201-5.702 28.502 0.698l129.308 100.608 129.306-100.506c8.301-6.502 19.802-6.803 28.506-0.698 8.698 6.099 12.301 16.896 9.101 27.002l-51.005 159.907 130.807 101.806c8.102 6.301 11.302 17.002 8 26.702-3.296 9.7-12.397 16.201-22.701 16.201h-158.509l-50.604 159.31z" />
<glyph unicode="&#xe97e;" glyph-name="messages-light-2" horiz-adv-x="1280" d="M640 64c-70.6 0-128 57.4-128 128v64h184c110.4 0 200 89.6 200 200v248h256c70.6 0 128-57.4 128-128v-384c0-70.6-57.4-128-128-128h-64v-96c0-12.2-6.8-23.2-17.6-28.6s-23.8-4.2-33.6 3l-162.2 121.6h-234.6zM704 320h-298.6l-162.2-121.6c-9.6-7.2-22.6-8.4-33.6-3s-17.6 16.4-17.6 28.6v96h-64c-70.6 0-128 57.4-128 128v384c0 70.6 57.4 128 128 128h576c70.6 0 128-57.4 128-128v-384c0-70.6-57.4-128-128-128zM175 800h-15v-64h240v64h-225zM211.2 672h-51.2v-64h512v64h-460.8zM192 560h-32v-64h320v64h-288z" />
<glyph unicode="&#xe97f;" glyph-name="bolt-sharp-solid" horiz-adv-x="896" d="M32 384l608 576-118.6-395.2 342.6-52.8-608-576 118.6 395.2-342.6 52.8z" />
<glyph unicode="&#xe980;" glyph-name="chevron-right-sharp-solid" horiz-adv-x="640" d="M634.6 448l-474.6-474.6-90.6 90.6 384 384-384 384 90.6 90.6 474.6-474.6z" />
<glyph unicode="&#xe981;" glyph-name="view_comfy" d="M768 724.667h170v-170h-170v170zM768 128.667v170h170v-170h-170zM554 128.667v170h172v-170h-172zM342 128.667v170h170v-170h-170zM128 128.667v170h170v-170h-170zM768 340.667v172h170v-172h-170zM554 724.667h172v-170h-172v170zM342 554.667v170h170v-170h-170zM554 340.667v172h172v-172h-172zM342 340.667v172h170v-172h-170zM128 340.667v172h170v-172h-170zM128 554.667v170h170v-170h-170z" />
<glyph unicode="&#xe982;" glyph-name="menu_book" d="M746 326.667q52 0 108-10v-64q-40 10-108 10-120 0-192-42v72q76 34 192 34zM554 406.667q84 34 192 34 52 0 108-10v-64q-40 10-108 10-120 0-192-42v72zM746 490.667q-120 0-192-42v70q80 36 192 36 52 0 108-10v-66q-48 12-108 12zM896 148.667v492q-66 20-150 20-130 0-234-64v-490q104 64 234 64 78 0 150-22zM746 746.667q152 0 236-64v-622q0-8-7-15t-15-7q-6 0-10 2-82 44-204 44-130 0-234-64-86 64-234 64-108 0-204-46-2 0-5-1t-5-1q-8 0-15 6t-7 14v626q86 64 236 64 148 0 234-64 86 64 234 64z" />
<glyph unicode="&#xe983;" glyph-name="cog" d="M850.336 496h61.664v-96h-61.664c-4.192-30.592-11.968-60.032-23.488-87.584l53.408-30.848-48-83.136-54.336 31.36c-18.656-23.552-40.32-44.544-64.352-62.656l32-55.392-83.136-48-32.672 56.544c-27.168-10.592-55.84-17.984-85.792-21.536v-66.752h-96v68.576c-29.184 4.512-57.312 12.192-83.648 23.392l-34.784-60.224-83.136 48 35.616 61.696c-22.304 17.888-42.208 38.496-59.584 61.216l-62.752-36.224-48 83.136 63.328 36.576c-10.272 25.952-17.472 53.376-21.376 81.888h-73.632v96h73.664c3.904 28.544 11.104 55.968 21.376 81.888l-63.328 36.576 48 83.136 62.752-36.224c17.376 22.72 37.28 43.328 59.584 61.248l-35.616 61.6 83.136 48 34.784-60.224c26.336 11.2 54.464 18.912 83.648 23.392v68.576h96v-66.72c29.952-3.552 58.624-10.944 85.792-21.536l32.672 56.544 83.136-48-32-55.424c24.032-18.112 45.696-39.104 64.352-62.656l54.336 31.36 48-83.136-53.408-30.848c11.488-27.552 19.264-56.992 23.456-87.584zM495.712 656.288c-114.88 0-208-93.12-208-208s93.12-208 208-208 208 93.12 208 208-93.12 208-208 208zM496 368c-44.192 0-80 35.808-80 80s35.808 80 80 80 80-35.808 80-80-35.808-80-80-80z" />
<glyph unicode="&#xe984;" glyph-name="delete" horiz-adv-x="1019" d="M646.834 155.627h-274.302c-47.262 0-85.256 37.995-85.256 85.256v353.998h-19.461c-11.12 0-19.461 8.34-19.461 19.461v19.461c0 11.12 8.34 19.461 19.461 19.461h484.662c11.12 0 19.461-8.34 19.461-19.461v-19.461c0-11.12-8.34-19.461-19.461-19.461h-20.387v-353.998c0-47.262-37.995-85.256-85.256-85.256zM601.426 503.138h-25.948c-11.12 0-19.461-8.34-19.461-19.461v-196.46c0-11.12 8.34-19.461 19.461-19.461h25.948c11.12 0 19.461 8.34 19.461 19.461v195.533c0 11.12-8.34 20.387-19.461 20.387zM443.888 503.138h-25.948c-11.12 0-19.461-8.34-19.461-19.461v-196.46c0-11.12 8.34-19.461 19.461-19.461h25.948c11.12 0 19.461 8.34 19.461 19.461v195.533c0.927 11.12-8.34 20.387-19.461 20.387zM581.966 685.698h-144.565c-11.12 0-19.461 8.34-19.461 19.461v19.461c0 11.12 8.34 19.461 19.461 19.461h144.565c11.12 0 19.461-8.34 19.461-19.461v-19.461c0-10.194-8.34-19.461-19.461-19.461z" />
<glyph unicode="&#xe985;" glyph-name="options" horiz-adv-x="1021" d="M154.791 538.153c-49.329 0-88.452-39.123-88.452-88.452s39.123-88.452 88.452-88.452 88.452 39.123 88.452 88.452-39.123 88.452-88.452 88.452zM512 538.153c-49.329 0-88.452-39.123-88.452-88.452s39.123-88.452 88.452-88.452 88.452 39.123 88.452 88.452c0 49.329-39.123 88.452-88.452 88.452 0 0 0 0 0 0v0zM869.209 538.153c-49.329 0-88.452-39.123-88.452-88.452s39.123-88.452 88.452-88.452c49.329 0 88.452 39.123 88.452 88.452s-40.824 88.452-88.452 88.452c-1.701 0-1.701 0 0 0v0z" />
<glyph unicode="&#xe986;" glyph-name="ordering" horiz-adv-x="1018" d="M869.28 197.598h-720.668c-22.394 0-39.698-18.322-39.698-39.698s18.322-39.698 39.698-39.698h721.686c22.394 0 39.698 18.322 39.698 39.698s-18.322 39.698-40.716 39.698zM869.28 490.751h-453.98c-22.394 0-39.698-18.322-39.698-39.698s18.322-39.698 39.698-39.698h453.98c22.394 0 39.698 18.322 39.698 39.698s-17.304 39.698-39.698 39.698zM869.28 784.922h-186.274c-22.394 0-39.698-18.322-39.698-39.698s18.322-39.698 39.698-39.698h187.292c22.394 0 39.698 18.322 39.698 39.698s-18.322 39.698-40.716 39.698z" />
<glyph unicode="&#xe987;" glyph-name="edit" horiz-adv-x="955" d="M850.293 775.003c23.45-23.45 23.45-62.534 0-85.985l-77.299-77.299-122.463 123.332 77.299 77.299c23.45 23.45 62.534 23.45 85.985 0l36.478-37.347zM339.596 423.247l268.377 268.377 122.463-122.463-270.982-270.982c-7.817-7.817-18.239-13.897-29.53-16.502l-77.299-18.239c-23.45-5.211-45.164 14.765-42.558 38.215l11.291 85.985c2.606 13.897 8.685 26.056 18.239 35.61v0zM191.077 716.811c0 5.211 3.474 8.685 8.685 8.685h251.874c28.662 0 52.112 23.45 52.112 52.112s-23.45 52.112-52.112 52.112h-251.874c-62.534 0-112.909-50.375-112.909-112.909v-555.861c0-62.534 50.375-112.909 112.909-112.909h555.861c62.534 0 112.909 50.375 112.909 112.909v251.874c0 28.662-23.45 52.112-52.112 52.112s-52.112-23.45-52.112-52.112v-251.874c0-5.211-3.474-8.685-8.685-8.685h-555.861c-5.211 0-8.685 3.474-8.685 8.685v555.861z" />
<glyph unicode="&#xe988;" glyph-name="vote2" d="M832.512-46.080c35.84 0 64 35.84 64 76.288 0 44.032-28.16 76.288-64 76.288h35.84c35.84 0 64 35.84 64 76.288s-24.064 76.288-59.904 76.288h32.256c35.84 0 64 35.84 64 76.288 0 44.032-28.16 76.288-64 76.288h28.16c35.84 0 64 35.84 64 76.288 0 44.032-28.16 76.288-64 76.288h-268.8l24.064 35.84c44.032 63.488 64.512 83.456 64.512 167.424v96.256c0 48.128-32.256 88.064-76.288 88.064-32.256 0-59.904-24.064-72.192-56.32l-39.936-108.032c-32.256-92.16-92.16-104.448-168.448-144.384l-64-35.84v-593.408c112.128-28.16 172.544-59.904 280.576-59.904h220.16zM71.168-29.696h148.48c24.064 0 39.936 15.872 39.936 39.936v601.088c0 24.064-15.872 39.936-39.936 39.936h-148.48c-24.064 0-39.936-15.872-39.936-39.936v-596.992c-0.512-24.064 15.872-44.032 39.936-44.032z" />
<glyph unicode="&#xe989;" glyph-name="up-light" horiz-adv-x="768" d="M379.4 832h9.2c8.8 0 17.2-3.6 23.2-10l285.2-299.6c4.4-4.6 7-10.8 7-17.4 0-13.8-11.2-25.2-25.2-25.2h-166.8c-17.6 0-32-14.4-32-32v-351.8c0-17.6-14.4-32-32-32h-128c-17.6 0-32 14.4-32 32v352c0 17.6-14.4 32-32 32h-166.8c-13.8 0-25.2 11.2-25.2 25.2 0 6.4 2.4 12.6 7 17.4l285.2 299.4c6 6.4 14.4 10 23.2 10zM768 505.2c0 22.8-8.8 45-24.6 61.4l-285.4 299.6c-18 19-43.2 29.8-69.4 29.8h-9.2c-26.2 0-51.4-10.8-69.4-29.8l-285.4-299.6c-15.8-16.6-24.6-38.6-24.6-61.4 0-49.2 40-89.2 89.2-89.2h134.8v-320c0-53 43-96 96-96h128c53 0 96 43 96 96v320h134.8c49.2 0 89.2 40 89.2 89.2z" />
<glyph unicode="&#xe98a;" glyph-name="up-right-from-square-light" d="M640 894c0 36.4 29.6 66 66 66h254c35.4 0 64-28.6 64-64v-254c0-36.4-29.6-66-66-66-17.4 0-34.2 7-46.6 19.4l-103.4 103.4-337.4-337.4c-12.4-12.4-32.8-12.4-45.2 0s-12.4 32.8 0 45.2l337.4 337.4-103.4 103.4c-12.4 12.4-19.4 29.2-19.4 46.6zM706 896c-1 0-2-0.8-2-2 0-0.6 0.2-1 0.6-1.4l252-252c0.4-0.4 0.8-0.6 1.4-0.6 1 0 2 0.8 2 2v254h-254zM0 768c0 70.6 57.4 128 128 128h288c17.6 0 32-14.4 32-32s-14.4-32-32-32h-288c-35.4 0-64-28.6-64-64v-704c0-35.4 28.6-64 64-64h704c35.4 0 64 28.6 64 64v288c0 17.6 14.4 32 32 32s32-14.4 32-32v-288c0-70.6-57.4-128-128-128h-704c-70.6 0-128 57.4-128 128v704z" />
<glyph unicode="&#xe98b;" glyph-name="reply-light" d="M432 640c-26.6 0-48 21.4-48 48v144l-320-288 320-288v144c0 26.6 21.4 48 48 48h208c141.4 0 256-114.6 256-256 0-16.6-1.4-32.2-4-46.4 36.4 46.8 68 114.2 68 206.4 0 159-129 288-288 288h-240zM448 352v-96c0-25.2-14.8-48.2-38-58.4s-50-6-68.8 10.8l-320 288c-13.4 12.2-21.2 29.4-21.2 47.6s7.8 35.4 21.2 47.6l320 288c18.8 17 45.8 21.2 68.8 10.8s38-33.2 38-58.4v-128h224c194.4 0 352-157.6 352-352 0-226.6-163-327.8-200.4-348.2-5-2.8-10.6-3.8-16.2-3.8-21.8 0-39.4 17.8-39.4 39.4 0 15 8.6 28.8 19.6 39 18.8 17.6 44.4 52.8 44.4 113.4 0 106-86 192-192 192h-192v-32z" />
<glyph unicode="&#xe98c;" glyph-name="users-ico" horiz-adv-x="1621" d="M888.465 189.388v52.78c77.15 39.728 140.083 138.772 140.083 237.832 0 159.058 0 288-210.128 288s-210.128-128.942-210.128-288c0-99.060 62.931-198.104 140.086-237.832v-52.78c-237.601-17.748-420.258-124.424-420.258-253.388h980.604c0 128.964-182.656 235.64-420.258 253.388zM406.038 164.672c60.532 36.15 135.795 63.636 218.652 80.414-16.475 17.784-31.419 37.622-44.315 59.020-33.286 55.235-50.882 116.058-50.882 175.894 0 86.042 0 167.31 33.489 233.762 32.511 64.503 90.977 104.496 174.256 119.488-18.511 76.48-67.789 126.75-198.99 126.75-210.129 0-210.129-128.942-210.129-288 0-99.060 62.932-198.104 140.086-237.832v-52.78c-237.6-17.748-420.257-124.42-420.257-253.388h305.35c15.889 12.91 33.485 25.172 52.74 36.672zM1254.682 164.672c-60.527 36.15-135.791 63.636-218.65 80.414 16.478 17.784 31.42 37.622 44.314 59.020 33.289 55.235 50.884 116.058 50.884 175.894 0 86.042 0 167.31-33.493 233.762-32.512 64.503-90.974 104.496-174.251 119.488 18.509 76.48 67.789 126.75 198.989 126.75 210.125 0 210.125-128.942 210.125-288 0-99.060-62.925-198.104-140.083-237.832v-52.78c237.602-17.748 420.258-124.42 420.258-253.388h-305.348c-15.889 12.91-33.485 25.172-52.745 36.672z" />
<glyph unicode="&#xe98d;" glyph-name="Asset-11" d="M0 192l512 512 512-512h-1024z" />
<glyph unicode="&#xe98e;" glyph-name="Asset-2" d="M0 704l512-512 512 512h-1024z" />
<glyph unicode="&#xe98f;" d="M170.667 704c0 141.653 114.347 256 256 256h426.667v-768c0-141.653-114.347-256-256-256h-426.667v768z" />
<glyph unicode="&#xe990;" d="M170.667 704c0 141.653 114.347 256 256 256h426.667v-85.333c0-141.653-114.347-256-256-256h-426.667v85.333z" />
<glyph unicode="&#xe991;" d="M170.667 704c0 141.653 114.347 256 256 256h426.667v-768c0-141.653-114.347-256-256-256h-426.667v768z" />
<glyph unicode="&#xe992;" d="M170.667 704c0 141.653 114.347 256 256 256h426.667v-85.333c0-141.653-114.347-256-256-256h-426.667v85.333z" />
<glyph unicode="&#xe993;" glyph-name="Asset-8" d="M834.56 239.543l-143.36 9.509c-10.24 0-20.48-2.194-29.257-8.046-8.046-5.851-14.629-14.629-16.823-24.869l-35.109-138.971c-31.451-8.046-64.366-13.166-98.743-13.166s-67.291 4.389-98.743 13.166l-35.109 138.971c-2.926 10.24-8.777 19.017-16.823 24.869s-18.286 8.777-29.257 8.046l-143.36-9.509c-35.109 54.126-57.051 118.491-60.709 187.246l121.417 76.069c8.777 5.851 15.36 13.897 18.286 24.137 2.926 9.509 2.926 20.48-0.731 29.989l-53.394 133.12c41.691 51.2 96.549 91.429 159.451 115.566l110.446-92.16c8.046-6.583 18.286-10.24 28.526-10.24s20.48 3.657 28.526 10.24l110.446 92.16c62.903-24.137 117.76-64.366 159.451-115.566l-53.394-133.12c-3.657-9.509-4.389-20.48-0.731-29.989 2.926-9.509 9.509-18.286 18.286-24.137l121.417-76.069c-3.657-68.754-25.6-133.12-60.709-187.246v0zM512-64c136.046 0 266.24 54.126 362.057 149.943s149.943 226.011 149.943 362.057-54.126 266.24-149.943 362.057c-95.817 95.817-226.011 149.943-362.057 149.943s-266.24-54.126-362.057-149.943c-95.817-95.817-149.943-226.011-149.943-362.057s54.126-266.24 149.943-362.057c95.817-95.817 226.011-149.943 362.057-149.943zM540.526 587.703c-16.823 12.434-39.497 12.434-56.32 0l-95.817-69.486c-16.823-12.434-24.137-33.646-17.554-53.394l36.571-112.64c6.583-19.749 24.869-32.914 45.349-32.914h118.491c20.48 0 39.497 13.166 45.349 32.914l36.571 112.64c6.583 19.749 0 41.691-17.554 53.394l-95.817 69.486z" />
<glyph unicode="&#xe994;" glyph-name="up-solid" horiz-adv-x="768" d="M338.8 877.2c25 25 65.6 25 90.6 0l320-320c18.4-18.4 23.8-45.8 13.8-69.8s-33.2-39.6-59.2-39.6h-192v-367.8c0-44.2-35.8-80-80-80h-96c-44.2 0-80 35.8-80 80v368h-192c-25.8 0-49.2 15.6-59.2 39.6s-4.4 51.4 13.8 69.8l320 320z" />
</font>
</defs>
</svg>
